<svg width="1440" height="555" viewBox="0 0 1440 555" fill="none" xmlns="http://www.w3.org/2000/svg">
<g opacity="0.3">
<g clip-path="url(#clip0_948_19032)">
<path d="M1355.35 360.08C1359.53 437.2 1208.81 594.024 1023.02 535.973C936.604 508.968 943.924 464.163 878.216 405.113C839.049 369.915 782.787 343.294 767.134 292.138C753.607 247.975 761.912 200.501 785.341 169.627C838.05 100.186 944.48 52.6411 1049.33 162.048C1154.17 271.455 1344.52 161.178 1355.34 360.08H1355.35Z" fill="url(#paint0_linear_948_19032)"/>
<path d="M1295.42 169.77C1281.39 194.82 1250.66 198.26 1201.45 193.493C1164.42 189.91 1130.66 187.127 1093.65 166.944C1067.73 152.813 1047.22 133.715 1032.25 115.145C1016.02 95.0334 993.38 72.0957 1004.48 49.3008C1019.73 17.9845 1107.96 -8.39307 1193.63 34.7417C1287.73 82.13 1309.16 145.291 1295.44 169.77H1295.42Z" fill="url(#paint1_linear_948_19032)"/>
<path d="M1388.35 230.29C1358.93 237.27 1327.81 212.305 1327.81 212.305C1327.81 212.305 1344.42 176.05 1373.84 169.099C1403.26 162.134 1434.37 187.07 1434.37 187.07C1434.37 187.07 1417.76 223.325 1388.34 230.29H1388.35Z" fill="url(#paint2_linear_948_19032)"/>
<path d="M1451.45 448.519C1459.84 442.781 1460.67 429.392 1460.67 429.392C1460.67 429.392 1447.9 425.324 1439.52 431.076C1431.13 436.814 1430.3 450.189 1430.3 450.189C1430.3 450.189 1443.07 454.257 1451.45 448.504V448.519Z" fill="url(#paint3_linear_948_19032)"/>
<path d="M694.078 317.845C707.505 331.519 732.618 328.635 732.618 328.635C732.618 328.635 735.942 303.585 722.501 289.925C709.074 276.251 683.976 279.12 683.976 279.12C683.976 279.12 680.651 304.17 694.078 317.845Z" fill="url(#paint4_linear_948_19032)"/>
<path d="M1441.06 382.846C1450.12 382.846 1457.47 375.497 1457.47 366.432C1457.47 357.366 1450.12 350.017 1441.06 350.017C1432 350.017 1424.65 357.366 1424.65 366.432C1424.65 375.497 1432 382.846 1441.06 382.846Z" fill="#E1E4E5"/>
<path d="M1213.48 118.785C1225.3 118.785 1234.88 109.199 1234.88 97.3743C1234.88 85.5496 1225.3 75.9639 1213.48 75.9639C1201.65 75.9639 1192.07 85.5496 1192.07 97.3743C1192.07 109.199 1201.65 118.785 1213.48 118.785Z" fill="#E1E4E5"/>
<path d="M1398.26 281.504C1404.17 281.504 1408.96 276.711 1408.96 270.798C1408.96 264.886 1404.17 260.093 1398.26 260.093C1392.35 260.093 1387.55 264.886 1387.55 270.798C1387.55 276.711 1392.35 281.504 1398.26 281.504Z" fill="#E1E4E5"/>
<path d="M648.418 491.325C654.714 491.325 659.819 486.219 659.819 479.921C659.819 473.622 654.714 468.516 648.418 468.516C642.121 468.516 637.017 473.622 637.017 479.921C637.017 486.219 642.121 491.325 648.418 491.325Z" fill="white"/>
<path d="M785.997 231.289C791.049 231.289 795.144 227.193 795.144 222.14C795.144 217.087 791.049 212.991 785.997 212.991C780.946 212.991 776.851 217.087 776.851 222.14C776.851 227.193 780.946 231.289 785.997 231.289Z" fill="#E1E4E5"/>
<path d="M1335.37 117.157C1343.08 117.157 1349.33 110.908 1349.33 103.198C1349.33 95.4882 1343.08 89.2383 1335.37 89.2383C1327.67 89.2383 1321.42 95.4882 1321.42 103.198C1321.42 110.908 1327.67 117.157 1335.37 117.157Z" fill="#E1E4E5"/>
<path d="M730.235 342.58C735.278 342.58 739.367 338.49 739.367 333.445C739.367 328.4 735.278 324.31 730.235 324.31C725.192 324.31 721.103 328.4 721.103 333.445C721.103 338.49 725.192 342.58 730.235 342.58Z" fill="white"/>
<path d="M918.839 125.95C925.546 125.95 930.982 120.512 930.982 113.804C930.982 107.095 925.546 101.657 918.839 101.657C912.133 101.657 906.697 107.095 906.697 113.804C906.697 120.512 912.133 125.95 918.839 125.95Z" fill="#E1E4E5"/>
<path d="M1322.32 364.447C1327.48 364.447 1331.66 361.099 1331.66 356.968C1331.66 352.837 1327.48 349.489 1322.32 349.489C1317.16 349.489 1312.97 352.837 1312.97 356.968C1312.97 361.099 1317.16 364.447 1322.32 364.447Z" fill="white"/>
<path d="M1130.97 35.3841C1140.74 35.3841 1148.65 27.4663 1148.65 17.6991C1148.65 7.93199 1140.74 0.0141602 1130.97 0.0141602C1121.21 0.0141602 1113.29 7.93199 1113.29 17.6991C1113.29 27.4663 1121.21 35.3841 1130.97 35.3841Z" fill="#E1E4E5"/>
<path d="M1492.72 277.222H1492.96C1494.4 297.733 1509.65 298.047 1509.65 298.047C1509.65 298.047 1492.83 298.375 1492.83 322.084C1492.83 298.375 1476.01 298.047 1476.01 298.047C1476.01 298.047 1491.25 297.733 1492.7 277.222H1492.72ZM960.119 45.9897H960.29C961.332 61.0056 972.333 61.2339 972.333 61.2339C972.333 61.2339 960.205 61.4766 960.205 78.819C960.205 61.4766 948.076 61.2339 948.076 61.2339C948.076 61.2339 959.063 61.0056 960.119 45.9897Z" fill="#E1E4E5"/>
<path d="M1098.73 277.878H1071.9V331.404H1098.73V277.878Z" fill="white"/>
<path d="M1124.07 277.878H1097.24V331.404H1124.07V277.878Z" fill="white"/>
<path d="M1003.54 277.878H976.714V331.404H1003.54V277.878Z" fill="white"/>
<path d="M1028.87 277.878H1002.04V331.404H1028.87V277.878Z" fill="white"/>
<path d="M1003.3 249.402H985.289V231.503C985.289 221.54 993.351 213.447 1003.3 213.447V249.388V249.402Z" fill="white"/>
<path d="M1020.31 249.402H1002.3V213.461C1012.24 213.461 1020.31 221.54 1020.31 231.503V249.402Z" fill="white"/>
<path d="M1193.77 277.878H1166.94V331.404H1193.77V277.878Z" fill="white"/>
<path d="M1219.11 277.878H1192.29V331.404H1219.11V277.878Z" fill="white"/>
<path d="M1171.75 494.551H1055.82V395.593L1114.22 288.641L1171.75 395.478V494.566V494.551Z" fill="white" stroke="#E1E4E5" stroke-width="4"/>
<path d="M1212.29 416.332H1185.47V469.858H1212.29V416.332Z" fill="white"/>
<path d="M1210.85 467.46V418.73H1188.22V467.46H1210.85Z" fill="white" stroke="#E1E4E5" stroke-width="4"/>
<path d="M1237.63 416.332H1210.81V469.858H1237.63V416.332Z" fill="white"/>
<path d="M1234.89 467.46V418.73H1212.26V467.46H1234.89Z" fill="white" stroke="#E1E4E5" stroke-width="4"/>
<path d="M1117.1 416.332H1090.28V469.858H1117.1V416.332Z" fill="white"/>
<path d="M1115.65 467.46V418.73H1093.02V467.46H1115.65Z" fill="white" stroke="#E1E4E5" stroke-width="4"/>
<path d="M1142.43 416.332H1115.61V469.858H1142.43V416.332Z" fill="white"/>
<path d="M1139.69 467.46V418.73H1117.06V467.46H1139.69Z" fill="white" stroke="#E1E4E5" stroke-width="4"/>
<path d="M1116.86 387.856H1098.85V369.957C1098.85 359.994 1106.92 351.916 1116.86 351.916V387.856Z" fill="white"/>
<path d="M1100.68 386.243V368.758C1100.68 360.351 1107.49 353.528 1115.88 353.528V386.243H1100.68Z" fill="white" stroke="#E1E4E5" stroke-width="4"/>
<path d="M1133.87 387.856H1115.86V351.916C1125.81 351.916 1133.87 359.994 1133.87 369.957V387.856Z" fill="white"/>
<path d="M1116.83 386.243V353.528C1125.22 353.528 1132.03 360.351 1132.03 368.758V386.243H1116.83Z" fill="white" stroke="#E1E4E5" stroke-width="4"/>
<path d="M1307.34 416.332H1280.51V469.858H1307.34V416.332Z" fill="white"/>
<path d="M1305.89 467.46V418.73H1283.26V467.46H1305.89Z" fill="white" stroke="#E1E4E5" stroke-width="4"/>
<path d="M1332.68 416.332H1305.85V469.858H1332.68V416.332Z" fill="white"/>
<path d="M1055.82 494.551V520.586H1344.46V494.551H1055.82Z" fill="white" stroke="#E1E4E5" stroke-width="4"/>
<path d="M1353.3 399.361L1289.96 288.641H1113.78L1177.12 399.361H1353.3Z" stroke="#E1E4E5" stroke-width="4"/>
<path d="M1329.92 418.73H1307.29V467.46H1329.92V418.73Z" fill="white" stroke="#E1E4E5" stroke-width="4"/>
<path d="M942.568 393.851H915.743V447.377H942.568V393.851Z" fill="white"/>
<path d="M941.127 444.965V396.235H918.497V444.965H941.127Z" fill="white" stroke="#E1E4E5" stroke-width="4"/>
<path d="M967.91 393.851H941.084V447.377H967.91V393.851Z" fill="white"/>
<path d="M965.17 444.965V396.235H942.54V444.965H965.17Z" fill="white" stroke="#E1E4E5" stroke-width="4"/>
<path d="M847.381 393.851H820.556V447.377H847.381V393.851Z" fill="white"/>
<path d="M872.723 393.851H845.897V447.377H872.723V393.851Z" fill="white"/>
<path d="M847.139 365.376H829.132V347.477C829.132 337.514 837.194 329.42 847.139 329.42V365.361V365.376Z" fill="white"/>
<path d="M864.147 365.375H846.14V329.435C856.085 329.435 864.147 337.513 864.147 347.491V365.39V365.375Z" fill="white"/>
<path d="M1037.61 393.851H1010.79V447.377H1037.61V393.851Z" fill="white"/>
<path d="M1062.95 393.851H1036.13V447.377H1062.95V393.851Z" fill="white"/>
<path fill-rule="evenodd" clip-rule="evenodd" d="M634.164 550.39C634.164 550.39 737.655 448.277 883.082 446.849C1029.17 445.408 1145.39 546.907 1156.09 552.145" fill="white"/>
<path d="M634.164 550.39C634.164 550.39 737.655 448.277 883.082 446.849C1029.17 445.408 1145.39 546.907 1156.09 552.145" stroke="#E1E4E5" stroke-width="4"/>
<path fill-rule="evenodd" clip-rule="evenodd" d="M809.127 550.39C809.127 550.39 912.618 448.277 1058.05 446.849C1204.13 445.408 1320.35 546.907 1331.05 552.145" fill="white"/>
<path d="M809.127 550.39C809.127 550.39 912.618 448.277 1058.05 446.849C1204.13 445.408 1320.35 546.907 1331.05 552.145" stroke="#E1E4E5" stroke-width="4"/>
<path fill-rule="evenodd" clip-rule="evenodd" d="M-311 550.39H1021.16C1021.16 550.39 1124.65 448.277 1270.08 446.849C1416.16 445.408 1532.38 546.907 1543.08 552.145H1734M710.544 399.96H710.601C712.057 399.96 713.241 401.145 713.241 402.601V521.686H707.904V402.601C707.904 401.145 709.089 399.96 710.544 399.96Z" fill="white"/>
<path d="M-311 550.39H1021.16C1021.16 550.39 1124.65 448.277 1270.08 446.849C1416.16 445.408 1532.38 546.907 1543.08 552.145H1734M710.544 399.96H710.601C712.057 399.96 713.241 401.145 713.241 402.601V521.686H707.904V402.601C707.904 401.145 709.089 399.96 710.544 399.96Z" stroke="#E1E4E5" stroke-width="4"/>
<path fill-rule="evenodd" clip-rule="evenodd" d="M663.814 455.713C663.814 481.662 684.846 502.687 710.773 502.687C736.699 502.687 757.731 481.648 757.731 455.713C757.731 429.778 736.713 378.607 710.773 378.607C684.832 378.607 663.814 429.778 663.814 455.713Z" fill="white"/>
<path d="M663.814 455.713C663.814 481.662 684.846 502.687 710.773 502.687C736.699 502.687 757.731 481.648 757.731 455.713C757.731 429.778 736.713 378.607 710.773 378.607C684.832 378.607 663.814 429.778 663.814 455.713Z" stroke="#E1E4E5" stroke-width="4"/>
<path fill-rule="evenodd" clip-rule="evenodd" d="M941.698 385.658H941.741C943.011 385.658 944.038 386.686 944.038 387.956V491.697H939.387V387.956C939.387 386.686 940.414 385.658 941.684 385.658H941.698Z" fill="white" stroke="#E1E4E5" stroke-width="4"/>
<path fill-rule="evenodd" clip-rule="evenodd" d="M900.989 434.231C900.989 456.826 919.296 475.153 941.898 475.153C964.5 475.153 982.806 456.826 982.806 434.231C982.806 411.636 964.5 367.06 941.898 367.06C919.296 367.06 900.989 411.636 900.989 434.231Z" fill="white"/>
<path d="M900.989 434.231C900.989 456.826 919.296 475.153 941.898 475.153C964.5 475.153 982.806 456.826 982.806 434.231C982.806 411.636 964.5 367.06 941.898 367.06C919.296 367.06 900.989 411.636 900.989 434.231Z" stroke="#E1E4E5" stroke-width="4"/>
<path fill-rule="evenodd" clip-rule="evenodd" d="M1064.09 423.306H1064.15C1065.6 423.306 1066.79 424.491 1066.79 425.947V545.031H1061.45V425.947C1061.45 424.491 1062.63 423.306 1064.09 423.306Z" fill="white" stroke="#E1E4E5" stroke-width="4"/>
<path fill-rule="evenodd" clip-rule="evenodd" d="M1013.36 467.059C1013.36 493.008 1034.38 514.033 1060.32 514.033C1086.26 514.033 1107.28 493.008 1107.28 467.059C1107.28 441.109 1086.26 389.953 1060.32 389.953C1034.38 389.953 1013.36 441.123 1013.36 467.059Z" fill="white"/>
<path d="M1013.36 469.059C1013.36 495.008 1034.38 516.033 1060.32 516.033C1086.26 516.033 1107.28 495.008 1107.28 469.059C1107.28 443.109 1086.26 391.953 1060.32 391.953C1034.38 391.953 1013.36 443.123 1013.36 469.059Z" stroke="#E1E4E5" stroke-width="4"/>
<path fill-rule="evenodd" clip-rule="evenodd" d="M1257.41 405.613H1257.45C1258.52 405.613 1259.38 406.483 1259.38 407.54V494.709H1255.47V407.54C1255.47 406.469 1256.34 405.613 1257.39 405.613H1257.41Z" fill="white" stroke="#E1E4E5" stroke-width="4"/>
<path fill-rule="evenodd" clip-rule="evenodd" d="M1223.21 446.421C1223.21 465.405 1238.59 480.806 1257.58 480.806C1276.57 480.806 1291.95 465.405 1291.95 446.421C1291.95 427.437 1276.57 389.983 1257.58 389.983C1238.59 389.983 1223.21 427.437 1223.21 446.421Z" fill="white"/>
<path d="M1223.21 446.421C1223.21 465.405 1238.59 480.806 1257.58 480.806C1276.57 480.806 1291.95 465.405 1291.95 446.421C1291.95 427.437 1276.57 389.983 1257.58 389.983C1238.59 389.983 1223.21 427.437 1223.21 446.421Z" stroke="#E1E4E5" stroke-width="4"/>
<path fill-rule="evenodd" clip-rule="evenodd" d="M1367.52 384.63H1367.56C1368.72 384.63 1369.66 385.572 1369.66 386.729V481.134H1365.44V386.729C1365.44 385.572 1366.38 384.63 1367.53 384.63H1367.52Z" fill="white" stroke="#E1E4E5" stroke-width="4"/>
<path fill-rule="evenodd" clip-rule="evenodd" d="M1330.48 428.821C1330.48 449.39 1347.15 466.061 1367.71 466.061C1388.27 466.061 1404.93 449.39 1404.93 428.821C1404.93 408.253 1388.27 367.688 1367.71 367.688C1347.15 367.688 1330.48 408.253 1330.48 428.821Z" fill="white"/>
<path d="M1330.48 428.821C1330.48 449.39 1347.15 466.061 1367.71 466.061C1388.27 466.061 1404.93 449.39 1404.93 428.821C1404.93 408.253 1388.27 367.688 1367.71 367.688C1347.15 367.688 1330.48 408.253 1330.48 428.821Z" stroke="#E1E4E5" stroke-width="4"/>
</g>
</g>
<defs>
<linearGradient id="paint0_linear_948_19032" x1="1172.82" y1="822.901" x2="890.691" y2="-449.549" gradientUnits="userSpaceOnUse">
<stop stop-color="white"/>
<stop offset="1" stop-color="#EEEEEE"/>
</linearGradient>
<linearGradient id="paint1_linear_948_19032" x1="1200.59" y1="332.161" x2="1075.47" y2="-229.916" gradientUnits="userSpaceOnUse">
<stop stop-color="white"/>
<stop offset="1" stop-color="#EEEEEE"/>
</linearGradient>
<linearGradient id="paint2_linear_948_19032" x1="1277.94" y1="248.446" x2="1535.54" y2="126.788" gradientUnits="userSpaceOnUse">
<stop stop-color="white"/>
<stop offset="1" stop-color="#EEEEEE"/>
</linearGradient>
<linearGradient id="paint3_linear_948_19032" x1="1480.92" y1="425.153" x2="1392.43" y2="461.701" gradientUnits="userSpaceOnUse">
<stop stop-color="white"/>
<stop offset="1" stop-color="#EEEEEE"/>
</linearGradient>
<linearGradient id="paint4_linear_948_19032" x1="747.172" y1="364.847" x2="650.041" y2="212.649" gradientUnits="userSpaceOnUse">
<stop stop-color="white"/>
<stop offset="1" stop-color="#EEEEEE"/>
</linearGradient>
<clipPath id="clip0_948_19032">
<rect width="2045" height="555" fill="white" transform="translate(-311)"/>
</clipPath>
</defs>
</svg>
