<svg width="1440" height="555" viewBox="0 0 1440 555" fill="none" xmlns="http://www.w3.org/2000/svg">
<g opacity="0.3">
<g clip-path="url(#clip0_948_19032)">
<path d="M1355.35 360.08C1359.53 437.2 1208.81 594.024 1023.02 535.973C936.604 508.968 943.924 464.163 878.216 405.113C839.049 369.915 782.787 343.294 767.134 292.138C753.607 247.975 761.912 200.501 785.341 169.627C838.05 100.186 944.48 52.6411 1049.33 162.048C1154.17 271.455 1344.52 161.178 1355.34 360.08H1355.35Z" fill="url(#paint0_linear_948_19032)"/>
<path d="M1295.42 169.77C1281.39 194.82 1250.66 198.26 1201.45 193.493C1164.42 189.91 1130.66 187.127 1093.65 166.944C1067.73 152.813 1047.22 133.715 1032.25 115.145C1016.02 95.0334 993.38 72.0957 1004.48 49.3008C1019.73 17.9845 1107.96 -8.39307 1193.63 34.7417C1287.73 82.13 1309.16 145.291 1295.44 169.77H1295.42Z" fill="url(#paint1_linear_948_19032)"/>
<path d="M1388.35 230.29C1358.93 237.27 1327.81 212.305 1327.81 212.305C1327.81 212.305 1344.42 176.05 1373.84 169.099C1403.26 162.134 1434.37 187.07 1434.37 187.07C1434.37 187.07 1417.76 223.325 1388.34 230.29H1388.35Z" fill="url(#paint2_linear_948_19032)"/>
<path d="M1451.45 448.519C1459.84 442.781 1460.67 429.392 1460.67 429.392C1460.67 429.392 1447.9 425.324 1439.52 431.076C1431.13 436.814 1430.3 450.189 1430.3 450.189C1430.3 450.189 1443.07 454.257 1451.45 448.504V448.519Z" fill="url(#paint3_linear_948_19032)"/>
<path d="M694.078 317.845C707.505 331.519 732.618 328.635 732.618 328.635C732.618 328.635 735.942 303.585 722.501 289.925C709.074 276.251 683.976 279.12 683.976 279.12C683.976 279.12 680.651 304.17 694.078 317.845Z" fill="url(#paint4_linear_948_19032)"/>
<path d="M1441.06 382.846C1450.12 382.846 1457.47 375.497 1457.47 366.432C1457.47 357.366 1450.12 350.017 1441.06 350.017C1432 350.017 1424.65 357.366 1424.65 366.432C1424.65 375.497 1432 382.846 1441.06 382.846Z" fill="#E1E4E5"/>
<path d="M1213.48 118.785C1225.3 118.785 1234.88 109.199 1234.88 97.3743C1234.88 85.5496 1225.3 75.9639 1213.48 75.9639C1201.65 75.9639 1192.07 85.5496 1192.07 97.3743C1192.07 109.199 1201.65 118.785 1213.48 118.785Z" fill="#E1E4E5"/>
<path d="M1398.26 281.504C1404.17 281.504 1408.96 276.711 1408.96 270.798C1408.96 264.886 1404.17 260.093 1398.26 260.093C1392.35 260.093 1387.55 264.886 1387.55 270.798C1387.55 276.711 1392.35 281.504 1398.26 281.504Z" fill="#E1E4E5"/>
<path d="M648.418 491.325C654.714 491.325 659.819 486.219 659.819 479.921C659.819 473.622 654.714 468.516 648.418 468.516C642.121 468.516 637.017 473.622 637.017 479.921C637.017 486.219 642.121 491.325 648.418 491.325Z" fill="white"/>
<path d="M785.997 231.289C791.049 231.289 795.144 227.193 795.144 222.14C795.144 217.087 791.049 212.991 785.997 212.991C780.946 212.991 776.851 217.087 776.851 222.14C776.851 227.193 780.946 231.289 785.997 231.289Z" fill="#E1E4E5"/>
<path d="M1335.37 117.157C1343.08 117.157 1349.33 110.908 1349.33 103.198C1349.33 95.4882 1343.08 89.2383 1335.37 89.2383C1327.67 89.2383 1321.42 95.4882 1321.42 103.198C1321.42 110.908 1327.67 117.157 1335.37 117.157Z" fill="#E1E4E5"/>
<path d="M730.235 342.58C735.278 342.58 739.367 338.49 739.367 333.445C739.367 328.4 735.278 324.31 730.235 324.31C725.192 324.31 721.103 328.4 721.103 333.445C721.103 338.49 725.192 342.58 730.235 342.58Z" fill="white"/>
<path d="M918.839 125.95C925.546 125.95 930.982 120.512 930.982 113.804C930.982 107.095 925.546 101.657 918.839 101.657C912.133 101.657 906.697 107.095 906.697 113.804C906.697 120.512 912.133 125.95 918.839 125.95Z" fill="#E1E4E5"/>
<path d="M1322.32 364.447C1327.48 364.447 1331.66 361.099 1331.66 356.968C1331.66 352.837 1327.48 349.489 1322.32 349.489C1317.16 349.489 1312.97 352.837 1312.97 356.968C1312.97 361.099 1317.16 364.447 1322.32 364.447Z" fill="white"/>
<path d="M1130.97 35.3841C1140.74 35.3841 1148.65 27.4663 1148.65 17.6991C1148.65 7.93199 1140.74 0.0141602 1130.97 0.0141602C1121.21 0.0141602 1113.29 7.93199 1113.29 17.6991C1113.29 27.4663 1121.21 35.3841 1130.97 35.3841Z" fill="#E1E4E5"/>
<path d="M1492.72 277.222H1492.96C1494.4 297.733 1509.65 298.047 1509.65 298.047C1509.65 298.047 1492.83 298.375 1492.83 322.084C1492.83 298.375 1476.01 298.047 1476.01 298.047C1476.01 298.047 1491.25 297.733 1492.7 277.222H1492.72ZM960.119 45.9897H960.29C961.332 61.0056 972.333 61.2339 972.333 61.2339C972.333 61.2339 960.205 61.4766 960.205 78.819C960.205 61.4766 948.076 61.2339 948.076 61.2339C948.076 61.2339 959.063 61.0056 960.119 45.9897V45.9897Z" fill="#E1E4E5"/>
<path d="M1098.73 277.878H1071.9V331.404H1098.73V277.878Z" fill="white"/>
<path d="M1124.07 277.878H1097.24V331.404H1124.07V277.878Z" fill="white"/>
<path d="M1003.54 277.878H976.714V331.404H1003.54V277.878Z" fill="white"/>
<path d="M1028.87 277.878H1002.04V331.404H1028.87V277.878Z" fill="white"/>
<path d="M1003.3 249.402H985.289V231.503C985.289 221.54 993.351 213.447 1003.3 213.447V249.388V249.402Z" fill="white"/>
<path d="M1020.31 249.402H1002.3V213.461C1012.24 213.461 1020.31 221.54 1020.31 231.503V249.402Z" fill="white"/>
<path d="M1193.77 277.878H1166.94V331.404H1193.77V277.878Z" fill="white"/>
<path d="M1219.11 277.878H1192.29V331.404H1219.11V277.878Z" fill="white"/>
<path d="M1171.75 494.551H1055.82V395.593L1114.22 288.641L1171.75 395.478V494.566V494.551Z" fill="white" stroke="#E1E4E5" stroke-width="4"/>
<path d="M1212.29 416.332H1185.47V469.858H1212.29V416.332Z" fill="white"/>
<path d="M1210.85 467.46V418.73H1188.22V467.46H1210.85Z" fill="white" stroke="#E1E4E5" stroke-width="4"/>
<path d="M1237.63 416.332H1210.81V469.858H1237.63V416.332Z" fill="white"/>
<path d="M1234.89 467.46V418.73H1212.26V467.46H1234.89Z" fill="white" stroke="#E1E4E5" stroke-width="4"/>
<path d="M1117.1 416.332H1090.28V469.858H1117.1V416.332Z" fill="white"/>
<path d="M1115.65 467.46V418.73H1093.02V467.46H1115.65Z" fill="white" stroke="#E1E4E5" stroke-width="4"/>
<path d="M1142.43 416.332H1115.61V469.858H1142.43V416.332Z" fill="white"/>
<path d="M1139.69 467.46V418.73H1117.06V467.46H1139.69Z" fill="white" stroke="#E1E4E5" stroke-width="4"/>
<path d="M1116.86 387.856H1098.85V369.957C1098.85 359.994 1106.92 351.916 1116.86 351.916V387.856Z" fill="white"/>
<path d="M1100.68 386.243V368.758C1100.68 360.351 1107.49 353.528 1115.88 353.528V386.243H1100.68Z" fill="white" stroke="#E1E4E5" stroke-width="4"/>
<path d="M1133.87 387.856H1115.86V351.916C1125.81 351.916 1133.87 359.994 1133.87 369.957V387.856Z" fill="white"/>
<path d="M1116.83 386.243V353.528C1125.22 353.528 1132.03 360.351 1132.03 368.758V386.243H1116.83Z" fill="white" stroke="#E1E4E5" stroke-width="4"/>
<path d="M1307.34 416.332H1280.51V469.858H1307.34V416.332Z" fill="white"/>
<path d="M1305.89 467.46V418.73H1283.26V467.46H1305.89Z" fill="white" stroke="#E1E4E5" stroke-width="4"/>
<path d="M1332.68 416.332H1305.85V469.858H1332.68V416.332Z" fill="white"/>
<path d="M1055.82 494.551V520.586H1344.46V494.551H1055.82Z" fill="white" stroke="#E1E4E5" stroke-width="4"/>
<path d="M1353.3 399.361L1289.96 288.641H1113.78L1177.12 399.361H1353.3Z" stroke="#E1E4E5" stroke-width="4"/>
<path d="M1329.92 418.73H1307.29V467.46H1329.92V418.73Z" fill="white" stroke="#E1E4E5" stroke-width="4"/>
<path d="M942.568 393.851H915.743V447.377H942.568V393.851Z" fill="white"/>
<path d="M941.127 444.965V396.235H918.497V444.965H941.127Z" fill="white" stroke="#E1E4E5" stroke-width="4"/>
<path d="M967.91 393.851H941.084V447.377H967.91V393.851Z" fill="white"/>
<path d="M965.17 444.965V396.235H942.54V444.965H965.17Z" fill="white" stroke="#E1E4E5" stroke-width="4"/>
<path d="M847.381 393.851H820.556V447.377H847.381V393.851Z" fill="white"/>
<path d="M872.723 393.851H845.897V447.377H872.723V393.851Z" fill="white"/>
<path d="M847.139 365.376H829.132V347.477C829.132 337.514 837.194 329.42 847.139 329.42V365.361V365.376Z" fill="white"/>
<path d="M864.147 365.375H846.14V329.435C856.085 329.435 864.147 337.513 864.147 347.491V365.39V365.375Z" fill="white"/>
<path d="M1037.61 393.851H1010.79V447.377H1037.61V393.851Z" fill="white"/>
<path d="M1062.95 393.851H1036.13V447.377H1062.95V393.851Z" fill="white"/>
<path fill-rule="evenodd" clip-rule="evenodd" d="M634.164 550.39C634.164 550.39 737.655 448.277 883.082 446.849C1029.17 445.408 1145.39 546.907 1156.09 552.145" fill="white"/>
<path d="M634.164 550.39C634.164 550.39 737.655 448.277 883.082 446.849C1029.17 445.408 1145.39 546.907 1156.09 552.145" stroke="#E1E4E5" stroke-width="4"/>
<path fill-rule="evenodd" clip-rule="evenodd" d="M809.127 550.39C809.127 550.39 912.618 448.277 1058.05 446.849C1204.13 445.408 1320.35 546.907 1331.05 552.145" fill="white"/>
<path d="M809.127 550.39C809.127 550.39 912.618 448.277 1058.05 446.849C1204.13 445.408 1320.35 546.907 1331.05 552.145" stroke="#E1E4E5" stroke-width="4"/>
<path fill-rule="evenodd" clip-rule="evenodd" d="M-311 550.39H1021.16C1021.16 550.39 1124.65 448.277 1270.08 446.849C1416.16 445.408 1532.38 546.907 1543.08 552.145H1734M710.544 399.96H710.601C712.057 399.96 713.241 401.145 713.241 402.601V521.686H707.904V402.601C707.904 401.145 709.089 399.96 710.544 399.96Z" fill="white"/>
<path d="M-311 550.39H1021.16C1021.16 550.39 1124.65 448.277 1270.08 446.849C1416.16 445.408 1532.38 546.907 1543.08 552.145H1734M710.544 399.96H710.601C712.057 399.96 713.241 401.145 713.241 402.601V521.686H707.904V402.601C707.904 401.145 709.089 399.96 710.544 399.96Z" stroke="#E1E4E5" stroke-width="4"/>
<path fill-rule="evenodd" clip-rule="evenodd" d="M663.814 455.713C663.814 481.662 684.846 502.687 710.773 502.687C736.699 502.687 757.731 481.648 757.731 455.713C757.731 429.778 736.713 378.607 710.773 378.607C684.832 378.607 663.814 429.778 663.814 455.713Z" fill="white"/>
<path d="M663.814 455.713C663.814 481.662 684.846 502.687 710.773 502.687C736.699 502.687 757.731 481.648 757.731 455.713C757.731 429.778 736.713 378.607 710.773 378.607C684.832 378.607 663.814 429.778 663.814 455.713Z" stroke="#E1E4E5" stroke-width="4"/>
<path fill-rule="evenodd" clip-rule="evenodd" d="M941.698 385.658H941.741C943.011 385.658 944.038 386.686 944.038 387.956V491.697H939.387V387.956C939.387 386.686 940.414 385.658 941.684 385.658H941.698Z" fill="white" stroke="#E1E4E5" stroke-width="4"/>
<path fill-rule="evenodd" clip-rule="evenodd" d="M900.989 434.231C900.989 456.826 919.296 475.153 941.898 475.153C964.5 475.153 982.806 456.826 982.806 434.231C982.806 411.636 964.5 367.06 941.898 367.06C919.296 367.06 900.989 411.636 900.989 434.231Z" fill="white"/>
<path d="M900.989 434.231C900.989 456.826 919.296 475.153 941.898 475.153C964.5 475.153 982.806 456.826 982.806 434.231C982.806 411.636 964.5 367.06 941.898 367.06C919.296 367.06 900.989 411.636 900.989 434.231Z" stroke="#E1E4E5" stroke-width="4"/>
<path fill-rule="evenodd" clip-rule="evenodd" d="M1064.09 423.306H1064.15C1065.6 423.306 1066.79 424.491 1066.79 425.947V545.031H1061.45V425.947C1061.45 424.491 1062.63 423.306 1064.09 423.306Z" fill="white" stroke="#E1E4E5" stroke-width="4"/>
<path fill-rule="evenodd" clip-rule="evenodd" d="M1013.36 467.059C1013.36 493.008 1034.38 514.033 1060.32 514.033C1086.26 514.033 1107.28 493.008 1107.28 467.059C1107.28 441.109 1086.26 389.953 1060.32 389.953C1034.38 389.953 1013.36 441.123 1013.36 467.059Z" fill="white"/>
<path d="M1013.36 469.059C1013.36 495.008 1034.38 516.033 1060.32 516.033C1086.26 516.033 1107.28 495.008 1107.28 469.059C1107.28 443.109 1086.26 391.953 1060.32 391.953C1034.38 391.953 1013.36 443.123 1013.36 469.059Z" stroke="#E1E4E5" stroke-width="4"/>
<path fill-rule="evenodd" clip-rule="evenodd" d="M1257.41 405.613H1257.45C1258.52 405.613 1259.38 406.483 1259.38 407.54V494.709H1255.47V407.54C1255.47 406.469 1256.34 405.613 1257.39 405.613H1257.41Z" fill="white" stroke="#E1E4E5" stroke-width="4"/>
<path fill-rule="evenodd" clip-rule="evenodd" d="M1223.21 446.421C1223.21 465.405 1238.59 480.806 1257.58 480.806C1276.57 480.806 1291.95 465.405 1291.95 446.421C1291.95 427.437 1276.57 389.983 1257.58 389.983C1238.59 389.983 1223.21 427.437 1223.21 446.421Z" fill="white"/>
<path d="M1223.21 446.421C1223.21 465.405 1238.59 480.806 1257.58 480.806C1276.57 480.806 1291.95 465.405 1291.95 446.421C1291.95 427.437 1276.57 389.983 1257.58 389.983C1238.59 389.983 1223.21 427.437 1223.21 446.421Z" stroke="#E1E4E5" stroke-width="4"/>
<path fill-rule="evenodd" clip-rule="evenodd" d="M1367.52 384.63H1367.56C1368.72 384.63 1369.66 385.572 1369.66 386.729V481.134H1365.44V386.729C1365.44 385.572 1366.38 384.63 1367.53 384.63H1367.52Z" fill="white" stroke="#E1E4E5" stroke-width="4"/>
<path fill-rule="evenodd" clip-rule="evenodd" d="M1330.48 428.821C1330.48 449.39 1347.15 466.061 1367.71 466.061C1388.27 466.061 1404.93 449.39 1404.93 428.821C1404.93 408.253 1388.27 367.688 1367.71 367.688C1347.15 367.688 1330.48 408.253 1330.48 428.821Z" fill="white"/>
<path d="M1330.48 428.821C1330.48 449.39 1347.15 466.061 1367.71 466.061C1388.27 466.061 1404.93 449.39 1404.93 428.821C1404.93 408.253 1388.27 367.688 1367.71 367.688C1347.15 367.688 1330.48 408.253 1330.48 428.821Z" stroke="#E1E4E5" stroke-width="4"/>
</g>
</g>
<g opacity="0.5" clip-path="url(#clip1_948_19032)">
<path fill-rule="evenodd" clip-rule="evenodd" d="M195.623 504.65C195.623 504.65 195.504 512.15 200.133 514.814C204.762 517.478 211.937 522.426 211.937 522.426L184.65 523.346L185.428 504.585L195.623 504.65V504.65Z" fill="#F8AE9D"/>
<path fill-rule="evenodd" clip-rule="evenodd" d="M183.768 503.333L180.563 522.77L192.367 522.711L192.741 503.024L183.768 503.327V503.333Z" fill="#F8AE9D"/>
<path d="M209.249 447.126C209.325 439.319 210 383.159 210 383.159L162.472 383C162.472 383 156.883 425.902 156.958 434.116C157.034 442.331 158.681 445.939 156.34 451.832C154 457.726 152 504.768 152 504.768L169.31 506.114C169.31 506.114 180.369 455.777 181.574 448.797C181.858 447.138 182.918 442.526 184.356 436.455C185.189 443.394 185.769 448.514 185.839 449.653C186.085 454.023 183.296 461.57 183.353 469.743C183.41 477.922 184.369 506.734 184.369 506.734L201.831 507C201.831 507 209.167 454.927 209.249 447.114V447.126Z" fill="#3F3531"/>
<path d="M334.469 448.33C334.523 442.812 335 403.113 335 403.113L301.403 403C301.403 403 297.452 433.327 297.505 439.134C297.559 444.941 298.723 447.491 297.068 451.657C295.414 455.824 294 489.077 294 489.077L306.237 490.029C306.237 490.029 314.054 454.446 314.906 449.512C315.106 448.339 315.856 445.078 316.872 440.787C317.461 445.692 317.871 449.311 317.92 450.117C318.094 453.206 316.123 458.541 316.163 464.319C316.204 470.1 316.881 490.467 316.881 490.467L329.225 490.655C329.225 490.655 334.411 453.845 334.469 448.322V448.33Z" fill="#5F5050"/>
<path d="M210.412 518.421C204.287 515.579 199.825 511.539 198.976 511.123C198.122 510.708 196.401 510.471 195.184 511.45C193.973 512.429 193.012 514.998 190.264 515.081C186.727 515.182 184.692 510.856 183.701 512.915L183.256 525.078H189.594L190.027 523.512C190.027 523.512 192.413 523.417 193.789 524.094C195.249 524.811 195.445 525.156 195.445 525.156L215.545 525.197C215.545 525.197 216.536 521.263 210.406 518.421H210.412Z" fill="#181B21"/>
<path d="M165.927 516.896L165.915 513.301C165.915 512.565 165.417 511.924 164.71 511.735L162.236 511.07C160.509 508.548 158.159 508.637 156.147 511.384L153.785 511.895C153.055 512.055 152.527 512.69 152.503 513.431L152.385 517.063C150.693 518.943 149.904 524.432 149.839 524.9C149.839 524.924 149.839 524.948 149.839 524.966C149.993 527.636 167.559 527.588 168.906 525.043C168.942 524.972 168.954 524.883 168.936 524.806C168.793 523.91 167.832 518.368 165.939 516.885L165.927 516.896Z" fill="#181B21"/>
<path fill-rule="evenodd" clip-rule="evenodd" d="M242.766 305.358C242.766 305.358 241.407 297.781 241.894 296.25C242.309 294.927 246.255 293.011 246.255 293.011C246.255 293.011 253.121 282.171 254.623 283.274C255.845 284.17 251.05 292.162 251.05 292.162C251.05 292.162 255.424 296.749 255.365 298.802C255.305 300.854 248.226 307.274 248.226 307.274L242.766 305.358ZM172.212 307.138C172.212 307.138 176.734 306.076 176.888 298.671C177.043 291.266 176.936 288.739 176.936 288.739L187.653 288.561C187.653 288.561 191.494 295.687 191.5 298.671C191.5 305.174 192.597 308.052 192.597 308.052C192.597 308.052 192.193 315.16 183.173 315.664C176.129 316.061 172.212 307.138 172.212 307.138Z" fill="#EAD1BB"/>
<path fill-rule="evenodd" clip-rule="evenodd" d="M175.952 284.989C171.507 284.817 172.237 291.32 176.848 291.308C176.848 291.308 181.809 301.276 189.595 301.305C193.345 301.317 194.568 297.977 195.695 295.633C196.823 293.289 197.648 289.783 197.713 287.635C197.784 285.345 197.796 277.821 197.796 277.821L185.5 270L175.952 284.989Z" fill="#EAD1BB"/>
<path fill-rule="evenodd" clip-rule="evenodd" d="M192.77 307.606C192.77 307.606 204.318 311.208 207.101 315.515C216.062 323.389 227.272 334.199 227.272 334.199C227.272 334.199 237.948 307.41 241.438 304.355C243.823 302.266 248.583 304.847 249.473 307.505C250.612 310.917 243.301 330.924 239.847 340.376C239.177 342.209 238.654 343.639 238.363 344.481C236.257 350.593 231.135 354.093 224.898 350.213C222.388 348.647 214.905 343.52 208.525 338.869C208.424 343.752 213.16 350.468 213 355.351C212.614 367.224 213 378.5 211 378.5C215.024 385.163 206.858 388.589 189.144 390.275C171.424 391.954 155.703 390.577 158.558 381.683C159.151 379.832 159.145 375.839 158.849 370.659C157.11 370.564 155.377 370.451 153.644 370.315C146.25 369.734 140.778 366.553 140.019 358.306C139.485 352.527 150.493 325.406 154.623 316.488C155.591 314.4 157.08 313.1 158.771 312.454C159.163 312.015 159.608 311.706 160.107 311.54C163.139 310.543 174.011 305.975 174.011 305.975L186.942 314.435L192.776 307.606H192.77ZM157.644 355.351L153.644 355.428H157.65L157.644 355.351Z" fill="#2E7D32"/>
<path d="M182.164 275.662C183.031 276.653 183.262 278.047 183.345 279.37C183.464 281.358 183.304 283.423 182.39 285.191C182.129 285.695 181.939 288.181 181.541 288.045C181.417 288.003 181.434 286.075 181.102 285.036C180.586 283.428 178.194 282.811 177.12 283.832C175.399 285.452 176.408 287.416 176.978 288.644C177.316 289.385 177.856 290.21 177.951 290.993C178.064 291.996 178.099 295.639 177.452 296.494C176.912 297.206 176.337 293.764 175.85 293.082C172.23 288.027 168.759 275.157 174.942 272.363C175.88 271.936 178.782 271.716 179.66 272.262" fill="#BDBDBD"/>
<path d="M146.793 475H197.207C202.063 475 206 478.939 206 483.797V521.203C206 526.061 202.063 530 197.207 530H146.793C141.937 530 138 526.061 138 521.203V483.797C138 478.939 141.937 475 146.793 475Z" fill="#CFD1D1"/>
<path d="M195.5 454C195.5 454 193.3 453.034 190.171 454.566C187.582 455.836 185.317 457.686 183.133 459.558C182.252 460.302 181.385 461.073 180.53 461.829C179.856 461.134 180.137 458.223 179.5 457.491C178.814 456.697 177.006 457.959 176.058 457.491C175.063 456.988 174.144 457.058 173.083 456.906C172.606 456.839 172.144 456.697 171.681 456.616C170.291 456.363 168.82 456.633 167.595 457.348C166.435 458.029 167.872 451.242 166.511 451.5C164.964 451.794 162.55 453.207 161 453C159.61 452.808 157.887 453.727 156.5 454C155.924 454.114 154.25 459.689 154.058 460.148C153.802 460.817 153.535 461.509 153.279 462.227L153.203 462.445C152.665 464.004 152.249 465.611 152.078 467.26C151.764 470.29 152.357 473.831 154.637 476.032C157.676 478.966 162.55 479.419 166.511 478.719C168.133 478.434 169.66 477.756 170.957 476.744C172.248 477.913 173.635 479.195 174.79 480.495C177.111 479.684 179.318 478.585 181.359 477.218C186.195 479.431 191.127 480.925 196.333 482.007C196.929 480.527 197.345 478.98 197.577 477.401C197.618 477.146 194.373 474.956 193.998 474.645C192.875 473.697 190.534 471.534 190.534 471.534C190.534 471.534 193.483 469.022 194.774 467.844C196.138 466.617 195.752 466.343 197 465C197.5 463.5 198.5 462.5 198.5 461C198.5 459.5 198.5 456.906 197.5 456L195.5 454Z" fill="#666666"/>
<path d="M326.724 477H279.276C274.705 477 271 480.939 271 485.797V523.203C271 528.061 274.705 532 279.276 532H326.724C331.295 532 335 528.061 335 523.203V485.797C335 480.939 331.295 477 326.724 477Z" fill="#CFD1D1"/>
<path fill-rule="evenodd" clip-rule="evenodd" d="M255.803 497.88C255.803 497.88 258.934 504.206 256.367 506.2C253.795 508.194 247 511.93 247 511.93L265 510.798L260.997 497L255.803 497.88V497.88Z" fill="#F8AE9D"/>
<path d="M340.081 335.18C344.751 324.332 339.944 320.153 337.184 314.087C334.423 308.021 329.437 305.495 328.507 307.03C327.022 303.078 324.424 301.861 319.664 301.52C313.816 301.102 306.301 304.18 304.686 308.817C302.543 314.969 300.971 315.566 298.286 319.879C296.502 322.744 295.425 329.185 297.253 333.288C300.045 339.554 306.144 345.186 317.796 346.02C324.705 346.514 336.315 343.928 340.081 335.18Z" fill="#999999"/>
<path fill-rule="evenodd" clip-rule="evenodd" d="M328.065 345.073C328.065 345.073 323.304 344.584 323.138 341.175C322.972 337.766 323.089 336.601 323.089 336.601L312.601 336.518C312.601 336.518 312.485 340.316 312.485 341.691C312.485 345.033 306.857 345.306 306.857 345.306C306.857 345.306 307.815 348.063 317.326 348.297C324.747 348.479 328.071 345.07 328.071 345.07L328.065 345.073Z" fill="#F8AE9D"/>
<path fill-rule="evenodd" clip-rule="evenodd" d="M331.045 385.298C331.045 385.298 325.186 384.948 323.772 385.543C322.36 386.134 315.942 390.915 316.686 391.693C317.482 392.525 321.328 389.12 322.057 389.237C322.785 389.354 326.163 392.257 327.804 391.413C329.445 390.568 333.096 389.117 333.096 389.117L351.036 384.601L344.282 379.467L331.045 385.298Z" fill="#F8AE9D"/>
<path fill-rule="evenodd" clip-rule="evenodd" d="M341.004 350.528C346.659 359.558 351.491 373.307 353.342 378.669C355.198 384.031 353.328 392.12 345.176 390.529C344.205 390.34 342.626 389.647 342.626 389.647C339.626 384.999 339.105 381.012 340.224 377.462L341.277 377.965C341.277 377.965 333.178 361.722 331.197 357.372C327.891 350.1 336.019 342.574 341.004 350.533V350.528Z" fill="#F5BF99"/>
<path fill-rule="evenodd" clip-rule="evenodd" d="M305.473 384.119C305.473 384.119 310.233 383.77 311.382 384.364C312.529 384.956 317.744 389.736 317.139 390.515C316.493 391.346 313.367 387.941 312.775 388.058C312.184 388.175 309.439 391.078 308.105 390.234C306.772 389.389 303.806 387.939 303.806 387.939L289.23 383.422L294.717 378.288L305.473 384.119Z" fill="#F8AE9D"/>
<path fill-rule="evenodd" clip-rule="evenodd" d="M299.696 349.867C294.607 358.897 290.259 372.646 288.592 378.008C286.922 383.37 288.605 391.459 295.942 389.868C296.816 389.679 298.237 388.986 298.237 388.986C300.936 384.338 301.406 380.351 300.398 376.801L299.451 377.304C299.451 377.304 306.74 361.061 308.523 356.711C311.498 349.439 304.183 341.913 299.696 349.872V349.867Z" fill="#F5BF99"/>
<path fill-rule="evenodd" clip-rule="evenodd" d="M325.104 343.865C319.822 347.089 313.719 348.269 308.035 344.768C298.762 362.991 296.449 384.741 298.68 408.774C312.204 414.109 326.057 411.49 335.732 405.393L325.104 343.865Z" fill="#F5BF99"/>
<path fill-rule="evenodd" clip-rule="evenodd" d="M325.401 343.608C316.825 371.998 311.682 412.25 338.465 405.251C324.235 378.776 343.58 366.86 339.194 353.179C337.693 348.498 325.513 343.242 325.401 343.608ZM309.345 344.297C306.071 352.592 304.501 359.102 303.032 371.277C301.807 381.418 302.42 402.346 302.42 402.346L298.374 403.147C298.374 403.147 295.483 370.814 296.447 366.655C298.07 359.672 299.167 355.589 301.312 349.203C302.494 345.695 309.345 344.297 309.345 344.297Z" fill="#F5BF99"/>
<path fill-rule="evenodd" clip-rule="evenodd" d="M328.75 324.495C331.607 327.259 331.607 329.447 327.812 331.095C327.812 331.095 325.125 341.822 315.298 340.739C307.406 340.739 304.5 329.447 306.821 327.259C307.446 324.495 306.736 317.012 306.736 317.012L328.926 317L328.744 324.495H328.75Z" fill="#FFCDC5"/>
<path fill-rule="evenodd" clip-rule="evenodd" d="M265.967 512.841C265.445 513.061 266.306 515.123 264.462 514.974C262.619 514.829 261.466 512.7 260.106 512.838C258.745 512.975 257.885 515.119 255.3 516.613C252.715 518.107 248.88 519.89 249.138 521.391C249.397 522.892 255.427 523.294 258.483 522.8C261.538 522.302 262.966 521.224 264.949 521.31C266.933 521.395 268.179 521.183 268.802 520.065C269.425 518.946 266.573 512.581 265.971 512.838L265.967 512.841ZM284.176 463.006C279.137 463.202 251.109 468.639 246.015 469.564C240.921 470.489 236.616 475.487 240.502 481.272C244.863 487.767 252.954 494.158 255.688 498.32C257.04 500.378 263.851 501.412 262.249 497.96C259.262 491.521 261.051 485.207 253.431 479.31C253.431 479.31 279.048 483.219 290.113 478.742C298.156 475.487 296.334 462.534 284.176 463.013V463.006Z" fill="#16282B"/>
<path fill-rule="evenodd" clip-rule="evenodd" d="M248.823 441.451C248.823 441.451 248.869 438.781 247.756 436.873C246.643 434.966 246.6 432.937 245.76 433.001C244.92 433.066 245.753 437.78 245.753 437.78C245.753 437.78 244.686 437.311 243.922 436.718C243.157 436.125 240.833 433.202 240.291 433.719C239.372 434.603 240.852 439.582 241.66 440.575C242.471 441.572 246.469 444.352 246.469 444.352L258.241 458L260 450.755L248.823 441.448V441.451Z" fill="#F8AE9D"/>
<path fill-rule="evenodd" clip-rule="evenodd" d="M278.232 432.929C275.375 439.552 270.146 451.723 267.992 455.355C265.289 459.901 261.027 461.905 256.041 458.532C254.997 457.824 252 455.36 252 455.36C252.444 451.041 254.056 447.425 256.841 444.522L258.732 446.087C258.732 446.087 264.096 432.346 268.405 424.385C272.141 417.499 282.583 422.861 278.238 432.934L278.232 432.929ZM290.576 407.213V413.077H298C298 413.077 296.203 403.995 297.278 399.821C297.954 397.207 299.598 388.352 292.979 388.766C287.559 379.209 271.763 385.124 271.639 396.799C271.49 410.84 271.614 416.31 271.614 416.31C280.542 416.822 285.569 415.53 290.576 407.208V407.213Z" fill="#FF7081"/>
<path fill-rule="evenodd" clip-rule="evenodd" d="M292.995 417.259C292.995 417.259 288.955 416.844 288.814 413.952C288.673 411.059 288.772 410.071 288.772 410.071L279.874 410C279.874 410 279.775 413.223 279.775 414.389C279.775 417.224 275 417.457 275 417.457C275 417.457 275.813 419.796 283.883 419.994C290.18 420.149 293 417.256 293 417.256L292.995 417.259Z" fill="#F8AE9D"/>
<path fill-rule="evenodd" clip-rule="evenodd" d="M293.576 399.798C296 402.144 296 404 292.78 405.398C292.78 405.398 290.5 414.5 282.162 413.581C275.466 413.581 273 404 274.97 402.144C275.5 399.798 274.897 393.449 274.897 393.449L293.726 393.439L293.571 399.798H293.576Z" fill="#FFCDC5"/>
<path fill-rule="evenodd" clip-rule="evenodd" d="M293.88 400.757C292.247 401.025 292.449 402.105 292.004 402.012C289.752 401.532 280.637 402.167 279.464 397.156C278.002 400.287 277.645 401.056 274.432 401.898V392.724L294.769 390.771C294.769 390.771 294.453 400.664 293.88 400.762V400.757Z" fill="#FF7081"/>
<path fill-rule="evenodd" clip-rule="evenodd" d="M290.09 417C285.608 419.736 280.43 420.737 275.607 417.767C267.739 433.228 265.776 451.683 267.67 472.075C279.145 476.601 288.791 475.711 297 470.537L290.09 417Z" fill="#FF7081"/>
<path fill-rule="evenodd" clip-rule="evenodd" d="M250.332 494C250.332 494 250.412 499.82 245.308 501.999C240.208 504.174 236.575 504.045 237.04 505.726C237.501 507.407 250.774 507.339 252.013 506.024C253.069 504.905 255.367 494.48 256 495.279L250.332 494V494Z" fill="#F8AE9D"/>
<path fill-rule="evenodd" clip-rule="evenodd" d="M249.793 517.962C249.02 517.41 248.367 520.582 246.266 519.702C244.165 518.819 245.821 515.904 244.5 515.368C243.176 514.831 240.622 517.723 237.23 518.424C233.839 519.125 231.085 519.74 230.3 521.044C229.625 522.166 230.3 522.524 230.3 522.524C230.3 522.524 233.567 524.134 235.597 524.492C238.543 525.006 247.066 525.349 247.998 524.41C248.571 523.832 250.182 518.238 249.793 517.962ZM298.551 462C298.551 462 303.712 474.065 294.552 478.735C285.694 483.252 263.521 476.931 263.521 476.931C263.521 476.931 259.615 482.948 259.14 486.31C257.902 495.091 256.738 496.738 255.489 498.575C253.765 501.117 248.651 499.61 248.553 497.493C248.455 495.376 249.046 481.183 249.665 476.029C250.28 470.874 252.215 470.125 257.871 468.716C259.168 468.392 274.534 464.62 275.942 464.728C288.037 465.675 298.555 462 298.555 462H298.551Z" fill="#1D3338"/>
<path fill-rule="evenodd" clip-rule="evenodd" d="M290.734 415.015C283.457 439.104 279.094 473.257 301.818 467.318C289.745 444.855 306.159 434.744 302.437 423.136C301.164 419.165 290.829 414.705 290.734 415.015ZM277.111 415.6C274.333 422.638 273.001 428.162 271.754 438.492C270.715 447.096 271.235 464.853 271.235 464.853L267.802 465.533C267.802 465.533 265.349 438.099 266.167 434.571C267.544 428.646 268.475 425.181 270.295 419.763C271.298 416.786 277.111 415.6 277.111 415.6Z" fill="#FF7081"/>
<path fill-rule="evenodd" clip-rule="evenodd" d="M292.77 443.369C292.77 443.369 289.199 439.897 287.961 439.495C286.727 439.093 279.953 438.607 280 439.519C280.051 440.495 284.409 440.439 284.812 440.918C285.215 441.397 285.777 445.134 287.299 445.501C288.822 445.868 291.971 446.959 291.971 446.959L306 454L304.506 446.959L292.77 443.369Z" fill="#F8AE9D"/>
<path fill-rule="evenodd" clip-rule="evenodd" d="M301.973 421.887C306.771 429.549 310.871 441.214 312.441 445.764C314.016 450.314 312.429 457.177 305.513 455.827C304.689 455.667 303.349 455.079 303.349 455.079C300.804 451.135 300.362 447.752 301.311 444.74L302.204 445.167C302.204 445.167 295.332 431.385 293.652 427.694C290.847 421.524 297.744 415.138 301.973 421.891V421.887Z" fill="#FF7081"/>
<path d="M322.248 385.519C321.372 385.519 320.656 386.235 320.656 387.11V387.261C320.656 388.136 321.372 388.852 322.248 388.852H344.221C345.096 388.852 345.812 388.136 345.812 387.261V387.11C345.812 386.235 345.096 385.519 344.221 385.519H322.248ZM322.248 394.247C321.372 394.247 320.656 394.963 320.656 395.839V395.99C320.656 396.865 321.372 397.581 322.248 397.581H335.498C336.374 397.581 337.09 396.865 337.09 395.99V395.839C337.09 394.963 336.374 394.247 335.498 394.247H322.248Z" fill="white" stroke="white" stroke-width="2"/>
<path fill-rule="evenodd" clip-rule="evenodd" d="M159.531 424.691C159.531 424.691 161.5 424.5 162.986 422.096C163.102 419.826 163.02 419.051 163.02 419.051L171.5 419.051C171.5 419.051 172 421.181 172 422.096C173 424 174.401 424.846 174.401 424.846C174.401 424.846 173.729 426.682 167.061 426.837C161.857 426.959 159.527 424.689 159.527 424.689L159.531 424.691Z" fill="#F8AE9D"/>
<path fill-rule="evenodd" clip-rule="evenodd" d="M159.428 410.29C157.426 412.24 157.426 413.784 160.084 414.947C160.084 414.947 159.304 423.55 168.851 421.753C177.859 421.753 176.415 413.784 174.789 412.24C174.351 410.29 173.045 405.009 173.045 405.009L161.5 403.5L159.432 410.29H159.428Z" fill="#FFCDC5"/>
<path fill-rule="evenodd" clip-rule="evenodd" d="M161.931 424.488C165.635 426.635 169.914 427.421 173.899 425.09C180.401 437.222 183.564 446.999 182 463C171.04 463.295 162.778 461.707 154.5 460.5L161.931 424.488Z" fill="#FBC580"/>
<path fill-rule="evenodd" clip-rule="evenodd" d="M161.399 422.931C167.413 441.833 171.779 464.66 153 460C153 441.353 148.653 438.412 151.728 429.303C152.781 426.187 161.321 422.687 161.399 422.931ZM172.657 423.389C174.952 428.913 176.054 433.247 177.084 441.353C177.942 448.105 177.513 462.038 177.513 462.038L180.35 462.572C180.35 462.572 182.377 441.045 181.701 438.276C180.563 433.627 179.794 430.908 178.289 426.656C177.461 424.321 172.657 423.389 172.657 423.389Z" fill="#FBC580"/>
<path fill-rule="evenodd" clip-rule="evenodd" d="M157.159 446.912C157.159 446.912 159.631 444.598 160.488 444.33C161.343 444.062 166.032 443.738 166 444.346C165.965 444.997 162.948 444.959 162.668 445.279C162.389 445.598 162.001 448.089 160.947 448.334C159.893 448.579 157.159 450.583 157.159 450.583L148 454L149.034 449.306L157.159 446.912Z" fill="#F8AE9D"/>
<path fill-rule="evenodd" clip-rule="evenodd" d="M178.021 447.439C178.021 447.439 175.327 444.715 174.393 444.4C173.461 444.084 168.351 443.703 168.386 444.419C168.424 445.184 171.712 445.14 172.017 445.516C172.321 445.892 172.744 448.825 173.893 449.113C175.042 449.401 177.024 451.144 177.024 451.144H182.5L184 449.113L178.021 447.439Z" fill="#F8AE9D"/>
<path fill-rule="evenodd" clip-rule="evenodd" d="M152.112 428.323C148.147 434.335 144.76 443.489 143.461 447.059C142.16 450.629 143.472 456.015 149.187 454.956C149.868 454.829 150.975 454.368 150.975 454.368C153.078 451.274 153.444 448.619 152.659 446.256L151.921 446.591C151.921 446.591 157.6 435.776 158.989 432.88C161.306 428.038 155.607 423.027 152.112 428.326V428.323Z" fill="#F5BF99"/>
<path fill-rule="evenodd" clip-rule="evenodd" d="M180.532 426.753C184.485 432.766 187.863 441.92 189.157 445.49C190.455 449.06 189.147 454.445 183.448 453.386C182.769 453.26 181.666 452.799 181.666 452.799C179.569 449.705 179.204 447.05 179.987 444.686L180.722 445.021C180.722 445.021 175.06 434.207 173.676 431.311C171.365 426.469 177.047 421.458 180.532 426.757V426.753Z" fill="#FBC580"/>
<path fill-rule="evenodd" clip-rule="evenodd" d="M147 378.797C147 376.151 144.726 374 141.928 374H101.072C98.274 374 96 376.151 96 378.797V406.035C96 408.682 98.274 410.832 101.072 410.832H134.125C134.641 410.832 135.14 410.984 135.571 411.256L145.673 417.86C146.053 418.108 146.586 418.02 146.848 417.652C146.949 417.516 147 417.356 147 417.196V378.797Z" fill="#BDBDBD"/>
<path d="M133.292 386C134.231 386 135 386.712 135 387.583V387.734C135 388.604 134.231 389.317 133.292 389.317H109.708C108.769 389.317 108 388.604 108 387.734V387.583C108 386.712 108.769 386 109.708 386H133.292ZM133.292 394.683C134.231 394.683 135 395.396 135 396.266V396.417C135 397.288 134.231 398 133.292 398H119.07C118.13 398 117.362 397.288 117.362 396.417V396.266C117.362 395.396 118.13 394.683 119.07 394.683H133.292Z" fill="white" stroke="white" stroke-width="2"/>
<path fill-rule="evenodd" clip-rule="evenodd" d="M418.99 304.59C418.99 301.956 421.131 299.815 423.765 299.815H462.228C464.862 299.815 467.003 301.956 467.003 304.59V331.698C467.003 334.332 464.862 336.472 462.228 336.472H431.111C430.625 336.472 430.156 336.616 429.75 336.894L420.24 343.466C419.882 343.713 419.38 343.626 419.133 343.268C419.038 343.132 418.99 342.973 418.99 342.814V304.597V304.59Z" fill="#80C9DC"/>
<path d="M432.003 311.109C431.127 311.109 430.411 311.825 430.411 312.7V312.851C430.411 313.727 431.127 314.443 432.003 314.443H453.976C454.851 314.443 455.567 313.727 455.567 312.851V312.7C455.567 311.825 454.851 311.109 453.976 311.109H432.003ZM432.003 319.838C431.127 319.838 430.411 320.554 430.411 321.429V321.58C430.411 322.455 431.127 323.171 432.003 323.171H445.253C446.129 323.171 446.845 322.455 446.845 321.58V321.429C446.845 320.554 446.129 319.838 445.253 319.838H432.003Z" fill="white" stroke="white" stroke-width="2"/>
<path fill-rule="evenodd" clip-rule="evenodd" d="M77.0088 193.797V232.198C77.0088 232.358 77.0615 232.518 77.1669 232.654C77.4393 233.014 77.9927 233.11 78.388 232.862L88.8861 226.258C89.3254 225.978 89.8525 225.834 90.3796 225.834H124.729C127.637 225.834 130 223.683 130 221.037V193.797C130 191.151 127.637 189 124.729 189H82.271C79.3632 189 77 191.151 77 193.797H77.0088Z" fill="#F5BF99"/>
<path d="M92.1073 201.158C91.2319 201.158 90.5156 201.874 90.5156 202.75V202.901C90.5156 203.776 91.2319 204.492 92.1073 204.492H114.08C114.956 204.492 115.672 203.776 115.672 202.901V202.75C115.672 201.874 114.956 201.158 114.08 201.158H92.1073ZM100.838 209.887C99.9621 209.887 99.2459 210.603 99.2459 211.478V211.629C99.2459 212.505 99.9621 213.221 100.838 213.221H114.088C114.964 213.221 115.68 212.505 115.68 211.629V211.478C115.68 210.603 114.964 209.887 114.088 209.887H100.838Z" fill="white" stroke="white" stroke-width="2"/>
<path d="M44.4744 227.999C43.9412 230.131 44.6495 232.343 45.8114 234.205C46.6391 235.518 47.7851 234.07 49.4643 233.839C52.0587 233.473 53.7061 230.728 54.2711 224.028C54.5337 219.135 54.4064 216.7 54.1358 216.27C53.1649 214.743 50.6739 214.233 48.7003 214.377" fill="#3F3531"/>
<path fill-rule="evenodd" clip-rule="evenodd" d="M18.1211 519.087C18.1211 519.087 18.2821 529.081 12.0054 532.631C5.7288 536.181 -4 542.775 -4 542.775L33 544L31.9458 519L18.1211 519.087V519.087Z" fill="#F8AE9D"/>
<path fill-rule="evenodd" clip-rule="evenodd" d="M72.5263 517.406L77 543L60.5219 542.922L60 517L72.5263 517.398V517.406Z" fill="#F8AE9D"/>
<path d="M2.89454 440.403C2.796 429.884 1.91738 354.215 1.91738 354.215L63.7829 354C63.7829 354 71.0583 411.806 70.9598 422.874C70.8613 433.942 68.7181 438.804 71.7645 446.745C74.811 454.685 77.4141 518.069 77.4141 518.069L54.8817 519.883C54.8817 519.883 40.4869 452.06 38.9185 442.655C38.5489 440.419 37.1694 434.205 35.2972 426.025C34.2133 435.374 33.4578 442.273 33.3675 443.808C33.0472 449.697 36.6767 459.865 36.6028 470.878C36.5289 481.898 35.2808 520.719 35.2808 520.719L12.5513 521.077C12.5513 521.077 3.00129 450.914 2.89454 440.387V440.403Z" fill="#E0DDCD"/>
<path d="M-3.81614 535.797C4.65814 531.986 10.8332 526.567 12.0075 526.01C13.1899 525.453 15.5713 525.135 17.2546 526.448C18.9298 527.761 20.26 531.206 24.062 531.318C28.956 531.453 31.7726 525.652 33.1439 528.413L33.7598 544.725H24.9899L24.3904 542.624C24.3904 542.624 21.0894 542.497 19.1843 543.404C17.1643 544.367 16.8933 544.828 16.8933 544.828L-10.9191 544.884C-10.9191 544.884 -12.2904 539.609 -3.80792 535.797H-3.81614Z" fill="#181B21"/>
<path d="M57.7386 533.752L57.755 528.93C57.755 527.944 58.4448 527.085 59.4219 526.83L62.8461 525.939C65.2357 522.557 68.4874 522.676 71.2712 526.36L74.5393 527.045C75.5494 527.26 76.2802 528.111 76.313 529.106L76.4773 533.975C78.8175 536.497 79.9097 543.857 80 544.486C80 544.518 80 544.55 80 544.574C79.7865 548.154 55.4804 548.09 53.6164 544.677C53.5671 544.582 53.5507 544.462 53.5753 544.359C53.7724 543.157 55.1027 535.726 57.7221 533.736L57.7386 533.752Z" fill="#181B21"/>
<path fill-rule="evenodd" clip-rule="evenodd" d="M-34.9087 247.022C-34.9087 247.022 -33.3888 236.758 -33.9331 234.684C-34.3977 232.892 -38.8113 230.296 -38.8113 230.296C-38.8113 230.296 -46.4905 215.612 -48.1697 217.107C-49.5369 218.32 -44.1741 229.147 -44.1741 229.147C-44.1741 229.147 -49.0657 235.36 -48.9993 238.14C-48.933 240.921 -41.0149 249.618 -41.0149 249.618L-34.9087 247.022ZM44 249.433C44 249.433 38.9425 247.994 38.77 237.964C38.5974 227.933 38.7169 224.509 38.7169 224.509L26.7302 224.268C26.7302 224.268 26.6107 235.448 26.6041 239.491C26.6041 248.3 21.2015 250.671 21.2015 250.671C21.2015 250.671 21.6528 260.299 31.7412 260.983C39.6195 261.521 44 249.433 44 249.433Z" fill="#EAD1BB"/>
<path fill-rule="evenodd" clip-rule="evenodd" d="M22.8121 224.49C16.8513 224.259 17.8302 232.979 24.0138 232.964C24.0138 232.964 30.667 246.331 41.1082 246.371C46.1379 246.387 47.7773 241.907 49.2894 238.764C50.8015 235.621 51.9077 230.919 51.9952 228.038C52.0907 224.967 52.1066 214.878 52.1066 214.878L22.5813 214.862L22.8121 224.49V224.49Z" fill="#F2E5DA"/>
<path fill-rule="evenodd" clip-rule="evenodd" d="M20.7736 249.426C20.7736 249.426 4.96724 254.294 1.15779 260.116C-11.1072 270.758 -26.4505 285.37 -26.4505 285.37C-26.4505 285.37 -41.0628 249.161 -45.8389 245.031C-49.1041 242.208 -55.6183 245.697 -56.8367 249.29C-58.3962 253.901 -48.3893 280.943 -43.662 293.718C-42.7442 296.196 -42.0294 298.129 -41.6314 299.268C-38.7479 307.528 -31.7383 312.259 -23.2015 307.014C-19.7657 304.897 -9.52326 297.968 -0.791599 291.681C-0.653517 298.281 -0.426087 305.242 -0.20678 311.842C0.321181 327.889 0.78416 341.883 -0.32862 343.696C-5.83566 352.702 1.49081 358.885 25.7364 361.162C49.9901 363.432 71.5066 361.571 67.5997 349.55C66.7874 347.048 66.7956 341.651 67.2017 334.65C69.5816 334.522 71.9533 334.369 74.3251 334.185C84.4457 333.399 91.9346 329.1 92.9743 317.953C93.7053 310.142 78.6381 273.485 72.9849 261.431C71.6609 258.608 69.6222 256.852 67.3073 255.978C66.7712 255.384 66.162 254.967 65.4797 254.743C61.3291 253.396 46.4487 247.221 46.4487 247.221L28.7499 258.656L20.7655 249.426H20.7736ZM68.8505 313.959L68.8912 314.064H68.8424L68.8505 313.959Z" fill="#EC8034"/>
<path fill-rule="evenodd" clip-rule="evenodd" d="M57.8949 322.56C57.8949 322.56 52.1979 321.514 49.8678 319.85C47.5376 318.187 40.4786 317 40.4786 317L42.7316 321.334C42.7316 321.334 25.4352 319.85 25.024 321.412C24.6128 322.966 29.6158 324.66 29.6158 324.66C29.6158 324.66 32.0831 328.862 34.4732 331.298C36.7349 333.602 47.9574 333.328 51.8981 331.891C55.2991 330.65 59 331.267 59 331.267L57.8949 322.56V322.56Z" fill="#EAD1BB"/>
<path d="M24.4353 215.276C25.3027 216.414 26.8387 216.668 28.104 216.891C29.8071 217.193 30.6427 217.822 31.5261 219.517C32.0832 220.599 32.6403 221.784 33.643 222.365C34.4548 222.843 34.4309 221.633 34.5503 220.694C34.5582 220.607 34.5821 220.519 34.598 220.432C34.789 219.684 35.5848 219.811 35.8156 220.543C36.0305 221.212 36.4841 221.776 37.0571 222.095C37.1526 222.142 37.2481 222.19 37.3516 222.174C37.4869 222.158 37.5903 222.023 37.6779 221.912C37.8609 221.673 38.044 221.363 38.235 221.044C38.8557 219.97 40.0415 220.352 40.7418 221.371C41.1795 222.007 41.6968 222.668 42.4051 222.811C42.6359 222.859 42.9224 222.827 43.0259 222.596C43.1611 222.318 42.9463 222.039 42.9861 221.761C43.0179 221.498 43.1293 221.379 43.2487 221.156C43.7262 220.289 44.8483 220.257 45.5248 220.981C45.9943 221.482 46.4877 221.967 47.005 222.429C47.2199 222.62 47.5382 222.819 47.761 222.62C47.8804 222.516 47.9043 222.341 47.9282 222.174C48.0475 221.355 48.1669 220.535 48.2942 219.724C48.3659 219.27 48.6046 218.665 49.0185 218.785C49.2174 218.84 49.3368 219.055 49.4482 219.246C49.5835 219.493 52.0028 222.278 52.0506 222.063C52.4246 220.48 53.1966 219.039 53.5706 217.456C56.0058 207.263 45.1985 199.076 36.9537 199.028C35.1153 199.012 33.4441 199.044 31.6614 199.474C29.7594 199.935 27.7539 200.675 26.0349 201.709C23.6155 203.158 21.7851 205.791 22.2626 208.934" fill="#3F3531"/>
<path d="M31.1444 211.982C32.3064 213.31 32.6167 215.18 32.7281 216.955C32.8873 219.62 32.6724 222.389 31.4469 224.76C31.0967 225.437 30.842 228.77 30.3088 228.587C30.1417 228.532 30.1656 225.946 29.7199 224.553C29.0275 222.397 25.8203 221.57 24.3799 222.938C22.072 225.11 23.4249 227.744 24.1889 229.391C24.6425 230.386 25.3667 231.492 25.494 232.542C25.6453 233.887 25.693 238.772 24.8256 239.918C24.1013 240.873 23.3294 236.258 22.6768 235.343C17.8222 228.564 13.1666 211.305 21.4592 207.558C22.7166 206.985 26.6082 206.69 27.786 207.422" fill="#3F3531"/>
<path d="M385.973 344.574C385.679 346.412 385.281 348.282 384.883 350.112C383.92 354.273 382.686 358.371 381.182 362.373C380.418 364.37 379.614 366.336 378.715 368.293C378.269 369.264 377.808 370.226 377.33 371.181C377.092 371.643 376.845 372.144 376.606 372.614C376.399 373.011 376.161 373.377 375.954 373.743C377.394 373.696 384.501 374.109 385.973 374.229" stroke="white" stroke-width="1.38" stroke-miterlimit="10" stroke-linecap="round"/>
<path d="M429.33 344.2C430.269 348.242 430.946 352.332 431.399 356.501" stroke="white" stroke-width="1.38" stroke-miterlimit="10" stroke-linecap="round"/>
<path d="M493.064 520.292C493.907 519.934 494.783 519.584 495.682 519.56C496.581 519.536 497.584 520.021 497.87 520.897C498.061 521.501 497.886 522.138 497.64 522.703C496.979 524.167 495.825 525.352 494.6 526.403C489.92 530.349 483.927 532.736 477.792 533.11C475.078 533.269 472.237 533.023 469.841 531.75C471.035 530.294 470.796 528.217 470.924 526.379C471.306 520.992 475.898 523.037 479.582 523.029C484.206 522.934 488.806 522.034 493.048 520.284L493.064 520.292Z" fill="#F7E9D7"/>
<path d="M367.203 459.677C367.052 460.616 366.869 461.554 366.662 462.477L366.017 465.278C365.802 466.082 365.317 467.077 365.309 467.912C365.309 467.745 371.007 467.26 371.548 467.204C377.485 466.623 383.446 466.281 389.383 465.899C393.235 465.66 397.015 465.748 400.867 465.772C402.005 465.787 403.342 465.676 403.963 464.745C404.48 463.949 404.058 462.939 404.472 462.207C404.742 462.279 407.838 463.058 407.806 462.995C407.934 463.703 408.172 465.175 408.905 465.525C409.175 465.628 409.438 465.668 409.708 465.668C410.114 465.668 410.512 465.612 410.918 465.557C410.982 465.557 411.037 465.533 411.085 465.493C411.157 465.429 411.085 465.326 411.022 465.223C410.106 463.87 409.629 462.279 409.653 460.647C408.69 459.995 407.735 459.247 406.907 458.427C406.247 457.751 405.761 456.868 405.029 456.287C404.265 455.643 403.525 456.032 402.689 456.247C401.718 456.462 400.755 456.717 399.8 457.003C397.946 457.576 396.1 458.284 394.54 459.43C393.999 459.82 393.489 460.25 392.853 460.441C392.248 460.631 391.579 460.624 390.943 460.616C387.027 460.52 383.112 460.329 379.236 459.899C375.257 459.47 372.543 459.533 367.338 458.746C367.338 458.778 367.338 459.08 367.227 459.645L367.203 459.677Z" fill="#F7E9D7"/>
<path d="M492.101 533.27C498.357 531.153 503.784 526.649 506.952 520.873C507.843 519.281 508.575 517.451 508.336 515.637C508.273 515.271 508.177 514.834 507.851 514.659C507.548 514.484 507.151 514.579 506.816 514.674C496.359 517.499 485.305 522.249 474.338 521.748C473.837 521.748 473.336 521.7 472.898 521.891C472.357 522.114 472.015 522.615 471.776 523.148C470.948 524.875 470.224 528.145 470.503 530.095C470.837 532.41 473.073 532.744 475.039 533.246C480.641 534.67 486.523 535.163 492.109 533.27H492.101Z" fill="#16282B"/>
<path d="M325.383 420.028C324.452 418.111 324.507 415.883 324.842 413.798C326.306 404.87 332.561 397.407 339.74 391.933C346.942 386.45 355.179 382.536 362.755 377.618C364.721 376.337 366.694 374.961 368.947 374.269C371.207 373.576 373.825 373.656 375.687 375.104C377 376.122 377.764 377.706 378.202 379.281C379.173 382.743 378.799 386.403 378.202 389.904C377.462 394.328 376.38 398.704 374.597 402.77C373.165 406.048 370.841 409.422 367.347 410.066C366.336 413.989 364.251 417.657 361.331 420.466C357.988 423.688 353.754 425.797 349.353 427.269C345.303 428.629 340.87 429.513 336.795 428.248C334.376 427.508 332.243 426.091 330.166 424.635C328.304 423.402 326.378 422.049 325.375 420.012L325.383 420.028ZM361.991 414.068L364.387 410.273C363.877 410.329 363.4 410.424 362.906 410.623C361.593 411.188 360.805 413.257 361.991 414.068Z" fill="#3F3531"/>
<path d="M366.034 415.914C382.237 415.588 396.864 410.91 406.184 412.907C415.503 414.912 416.012 391.049 406.82 383.689C397.628 376.329 417.23 355.188 405.284 345.767C393.339 336.354 386.614 340.301 386.614 340.301C386.614 340.301 376.372 338.67 373.618 356.756C370.562 376.855 362.397 373.544 349.441 389.872C341.865 399.412 349.839 416.249 366.034 415.914Z" fill="#3F3531"/>
<path d="M485.527 463.178C480.959 451.028 462.512 455.293 453.949 459.486C446.866 462.963 440.666 468.023 434.69 473.148C432.278 475.185 429.907 477.293 427.567 479.362C425.721 477.46 423.683 474.986 421.94 472.981C420.062 470.808 417.921 468.771 415.327 467.49C412.605 466.114 410.091 466.305 407.186 465.891C405.881 465.708 404.615 465.318 403.35 465.095C399.546 464.403 395.519 465.143 392.168 467.1C388.993 468.962 386.415 471.166 382.69 471.875C378.456 472.678 373.546 472.201 369.304 471.636C365.5 471.111 361.624 470.243 357.828 470.991C356.253 471.302 355.648 473.506 355.123 474.763C354.422 476.593 353.69 478.487 352.99 480.452L352.783 481.049C351.311 485.314 350.172 489.714 349.703 494.225C348.843 502.516 350.467 512.208 356.706 518.231C365.023 526.259 378.361 527.501 389.2 525.583C393.641 524.803 397.819 522.949 401.368 520.18C404.902 523.379 408.698 526.888 411.857 530.445C418.208 528.225 424.248 525.217 429.835 521.477C443.07 527.532 456.567 531.622 470.812 534.582C472.444 530.532 473.582 526.299 474.219 521.979C474.33 521.278 465.448 515.287 464.422 514.435C461.35 511.842 454.944 505.922 454.944 505.922C454.944 505.922 463.013 499.047 466.547 495.825C470.279 492.467 473.868 488.95 477.282 485.274C480.108 482.234 482.869 479.036 484.596 475.24C486.331 471.485 486.968 467.045 485.519 463.138L485.527 463.178Z" fill="#0093BA"/>
<path d="M406.303 356.206C406.43 356.875 406.446 357.583 406.406 358.387C406.136 363.073 405.125 367.688 403.422 372.064C402.38 374.658 401.098 377.22 399.292 379.369C398.544 380.26 397.692 381.087 396.586 381.406C395.44 381.724 393.999 381.772 392.869 381.485C391.867 385.623 392.288 393.428 395.862 396.357C396.952 397.248 398.249 397.797 399.546 398.29C402.077 399.269 404.711 400.009 407.346 400.582C410.346 401.226 413.625 401.711 415.734 403.923C415.996 404.194 416.259 404.568 416.155 404.934C416.084 405.165 415.917 405.332 415.71 405.459C414.046 406.804 411.993 407.544 409.94 408.252C406.343 409.469 402.642 410.48 398.878 411.164C394.947 411.872 390.896 412.214 386.917 411.785C383.845 411.435 380.805 410.655 378.019 409.27C375.099 407.822 372.098 406.637 369.074 405.252C366.512 404.075 363.989 402.73 361.219 402.253C362.532 399.762 365.262 398.362 367.984 397.701C370.706 397.073 373.555 397.017 376.308 396.492C377.215 396.301 378.123 396.086 378.903 395.529C381.035 393.985 380.454 390.564 380.486 388.32L380.598 381.223C380.279 377.833 378.887 375 377.661 371.905C375.791 367.155 375.401 361.76 377.048 356.899C378.696 352.069 382.444 347.876 387.259 346.173C392.074 344.47 397.851 345.433 401.544 348.966C403.884 351.241 405.794 353.278 406.319 356.199L406.303 356.206Z" fill="#F7E9D7"/>
<path d="M403.915 346.571C400.676 342.927 396.299 340.579 391.508 341.12C391.086 341.16 390.72 341.208 390.401 341.311C388.523 341.717 384.433 343.484 383.35 345.775C381.52 345.998 379.658 346.619 378.663 347.12C378.353 347.247 378.042 347.438 377.684 347.677C373.625 350.295 371.723 354.878 371.516 359.747C371.333 363.837 372.639 367.975 375.257 371.054C375.631 371.491 376.077 371.937 376.658 372.136C378.114 372.55 379.284 371.006 380.032 369.685C381.249 367.545 381.759 365.46 382.682 363.296C383.605 361.132 385.666 359.66 386.152 357.312C386.383 356.143 387.234 353.907 387.807 351.751C389.128 352.626 390.378 353.39 391.038 353.931C392.9 355.443 395.431 355.283 397.516 356.374C399.601 357.472 401.304 358.761 403.604 359.652C405.013 360.209 406.899 360.662 407.766 359.421C408.093 358.904 408.156 358.267 408.172 357.694C408.252 353.644 406.652 349.618 403.923 346.563L403.915 346.571Z" fill="#3F3531"/>
<path d="M196.902 270.126C195.128 267.27 192.392 265.115 188.99 264.812C188.691 264.78 188.43 264.761 188.195 264.785C186.836 264.794 183.76 265.398 182.707 266.763C181.405 266.658 180.029 266.811 179.271 267.005C179.039 267.047 178.798 267.13 178.517 267.238C175.352 268.409 173.428 271.176 172.646 274.366C171.982 277.045 172.347 279.96 173.764 282.356C173.966 282.697 174.218 283.053 174.596 283.265C175.554 283.739 176.57 282.88 177.264 282.11C178.391 280.864 179.018 279.556 179.944 278.253C180.87 276.949 182.496 276.261 183.142 274.776C183.456 274.035 184.341 272.674 185.022 271.328C185.826 272.089 186.595 272.766 186.983 273.215C188.08 274.471 189.86 274.715 191.167 275.723C192.473 276.737 194.018 276.594 195.5 277.5C196.406 278.063 197.129 279.853 197.895 279.152C198.19 278.855 198.414 276.876 198.5 276.5C199.086 273.834 198.406 272.518 196.909 270.122L196.902 270.126Z" fill="#BDBDBD"/>
<path d="M413.768 402.873C414.404 402.579 415.176 402.793 415.598 403.366C420.381 410.066 422.235 418.46 423.851 426.553C425.689 435.751 427.321 444.98 428.888 454.21C428.984 454.68 429.04 455.181 428.833 455.619C428.626 456.056 428.156 456.279 427.719 456.47C424.957 457.799 422.156 459.096 419.386 460.425C416.402 453.637 414.253 446.508 412.98 439.204C411.205 443.691 407.998 447.598 403.907 450.144C406.955 454.505 410.704 463.233 414.365 467.077C414.922 467.689 418.384 466.734 419.163 466.48C419.641 467.856 417.389 466.384 417.405 467.793C415.327 468.095 412.662 466.854 410.529 466.583C407.95 466.281 405.348 466.265 402.761 466.535C398.472 467.005 394.294 468.35 390.482 470.363C388.588 471.373 386.765 472.519 385.038 473.792C383.55 474.906 379.857 477.532 379.857 477.532C379.587 477.731 378.321 477.444 378.019 477.373C377.144 477.221 376.26 477.11 375.377 477.03C373.156 476.855 370.952 476.569 368.763 476.163C364.386 475.36 360.089 474.126 355.967 472.423C355.569 472.113 356.985 469.193 357.065 468.628C356.993 469.161 348.868 468.501 348.064 468.358C344.857 467.705 341.618 467.355 338.418 466.671C339.851 453.773 343.79 441.312 347.658 428.955C349.17 424.094 350.722 419.224 352.863 414.641C355.147 409.756 358.099 405.181 361.641 401.115C361.744 401.019 361.911 400.948 362.047 400.987C363.75 401.417 374.119 404.082 379.276 406C381.903 407.011 384.569 407.918 387.267 408.833C388.333 409.183 389.431 409.533 390.537 409.517C391.278 409.493 392.01 409.334 392.718 409.183C399.904 407.583 407.099 405.857 413.768 402.873V402.873Z" fill="white"/>
<path d="M489.275 421.532L477.784 472.774L390.529 471.445C390.577 468.429 393.052 465.995 396.1 466.042L416.95 466.361L427.344 419.224C427.678 417.697 429.031 416.615 430.599 416.631L486.092 417.474C488.201 417.538 489.745 419.471 489.275 421.54V421.532Z" fill="#D9E2E2"/>
<path d="M375.289 546.724C375.695 544.385 376.833 541.998 377.899 539.905C382.316 531.336 390.211 525.297 398.71 521.143C399.586 520.721 400.461 520.3 401.368 519.981C401.289 520.085 401.225 520.196 401.161 520.316V520.347H401.13C401.233 520.284 401.297 520.212 401.4 520.149C404.838 523.244 408.499 526.649 411.627 530.079C409.558 531.758 406.557 533.118 405.069 534.232C401.551 536.826 398.161 539.587 394.508 542.006C389.606 545.308 384.377 547.711 378.536 548.761C376.284 549.159 375.106 549.581 375.138 547.838C375.178 547.568 375.217 547.202 375.289 546.732V546.724Z" fill="#16282B"/>
<path d="M380.777 539.786C383.053 535.505 386.587 532.243 390.447 529.355C393.153 527.318 396.025 525.488 398.771 523.626C399.551 523.101 401.079 521.684 402.392 521C405.13 523.483 407.939 526.108 410.478 528.822C402.098 533.914 394.633 540.566 385.433 544.17C384.589 544.488 383.714 544.815 382.815 544.831C381.915 544.847 380.944 544.465 380.419 543.725C379.6 542.571 380.125 541.011 380.777 539.778V539.786Z" fill="#F7E9D7"/>
<path d="M495.714 523.649C492.508 522.243 488.897 521.996 485.226 522.113C482.647 522.187 480.043 522.457 477.509 522.65C476.791 522.707 475.227 522.597 474.099 522.807C473.325 525.482 472.562 528.271 472.01 530.987C479.506 530.06 487.037 530.444 494.464 528.29C495.14 528.086 495.84 527.871 496.43 527.468C497.02 527.065 497.496 526.402 497.538 525.738C497.604 524.702 496.633 524.051 495.711 523.644L495.714 523.649Z" fill="#F7E9D7"/>
<path d="M161.358 485.65C162.406 483.679 164.033 482.177 165.81 480.847C167.056 479.909 168.378 479.066 169.643 478.209C170.002 477.967 170.705 477.315 171.31 477C172.57 478.143 173.864 479.352 175.033 480.601C171.174 482.946 167.737 486.009 163.501 487.668C163.113 487.815 162.71 487.965 162.296 487.972C161.882 487.979 161.435 487.804 161.193 487.463C160.816 486.932 161.057 486.214 161.358 485.646V485.65Z" fill="#F7E9D7"/>
<path d="M208.532 481.995C207.095 480.747 205.34 480.049 203.519 479.534C202.24 479.168 200.929 478.902 199.661 478.606C199.301 478.524 198.541 478.22 197.964 478.154C197.31 479.449 196.65 480.807 196.101 482.159C199.89 482.846 203.563 484.232 207.443 484.258C207.797 484.256 208.164 484.252 208.496 484.131C208.827 484.01 209.13 483.734 209.218 483.388C209.356 482.85 208.944 482.352 208.531 481.992L208.532 481.995Z" fill="#F7E9D7"/>
<path d="M515.32 484.781C520.453 481.272 520.954 473.084 520.954 473.084C520.954 473.084 513.147 470.602 508.014 474.118C502.881 477.627 502.379 485.807 502.379 485.807C502.379 485.807 510.186 488.29 515.32 484.781Z" fill="url(#paint5_linear_948_19032)"/>
<path d="M125.951 344.63C129.041 344.63 131.546 342.125 131.546 339.036C131.546 335.947 129.041 333.442 125.951 333.442C122.861 333.442 120.356 335.947 120.356 339.036C120.356 342.125 122.861 344.63 125.951 344.63Z" fill="#E1E4E5"/>
<path d="M418.801 192.161C420.779 192.161 422.382 190.558 422.382 188.581C422.382 186.603 420.779 185 418.801 185C416.823 185 415.22 186.603 415.22 188.581C415.22 190.558 416.823 192.161 418.801 192.161Z" fill="#E1E4E5"/>
<path d="M219.446 247.939C223.551 247.939 226.879 244.611 226.879 240.507C226.879 236.402 223.551 233.075 219.446 233.075C215.341 233.075 212.013 236.402 212.013 240.507C212.013 244.611 215.341 247.939 219.446 247.939Z" fill="#E1E4E5"/>
<path d="M140.921 511.905C144.077 511.905 146.635 509.857 146.635 507.33C146.635 504.803 144.077 502.755 140.921 502.755C137.765 502.755 135.207 504.803 135.207 507.33C135.207 509.857 137.765 511.905 140.921 511.905Z" fill="white"/>
<path d="M523.601 535.693C528.218 533.44 530.52 528.659 528.741 525.014C526.962 521.368 521.776 520.24 517.158 522.492C512.541 524.745 510.24 529.526 512.019 533.172C513.798 536.817 518.983 537.946 523.601 535.693Z" fill="white"/>
<path d="M363.093 257.407C366.389 257.407 369.061 254.735 369.061 251.439C369.061 248.143 366.389 245.472 363.093 245.472C359.796 245.472 357.124 248.143 357.124 251.439C357.124 254.735 359.796 257.407 363.093 257.407Z" fill="#E1E4E5"/>
<path d="M521.639 308.131H521.79C522.673 320.671 532.008 320.87 532.008 320.87C532.008 320.87 521.718 321.069 521.718 335.566C521.718 321.069 511.428 320.87 511.428 320.87C511.428 320.87 520.755 320.679 521.639 308.131V308.131ZM312.136 223.479H312.288C313.171 236.019 322.506 236.218 322.506 236.218C322.506 236.218 312.216 236.417 312.216 250.914C312.216 236.417 301.926 236.218 301.926 236.218C301.926 236.218 311.253 236.027 312.136 223.479V223.479ZM153.034 202.537H153.145C153.782 211.719 160.515 211.854 160.515 211.854C160.515 211.854 153.098 211.997 153.098 222.604C153.098 211.997 145.681 211.854 145.681 211.854C145.681 211.854 152.405 211.711 153.042 202.537H153.034ZM-38.0528 274.912H-37.9414C-37.3047 284.094 -30.572 284.229 -30.572 284.229C-30.572 284.229 -37.9891 284.372 -37.9891 294.979C-37.9891 284.372 -45.4062 284.229 -45.4062 284.229C-45.4062 284.229 -38.6815 284.086 -38.0448 274.912H-38.0528Z" fill="#E1E4E5"/>
<path fill-rule="evenodd" clip-rule="evenodd" d="M159.643 412.589C161.76 410.475 162.382 406.953 162.956 403.983C164.917 405.445 167.613 405.805 169.874 404.906C170.583 405.76 171.417 406.505 172.338 407.11C172.6 407.283 172.911 407.45 173.209 407.358C173.564 407.248 173.722 406.831 173.807 406.46C174.078 405.276 174.088 404.009 173.684 402.864C173.28 401.72 172.435 400.715 171.327 400.276C170.143 399.806 168.811 400.011 167.582 400.337C165.73 400.828 163.946 401.584 162.295 402.574C160.675 403.546 159.119 404.832 158.432 406.621C157.745 408.41 157.748 411.888 159.404 412.793" fill="black"/>
<path fill-rule="evenodd" clip-rule="evenodd" d="M309.229 378.999C309.229 376.365 311.369 374.225 314.003 374.225H352.466C355.1 374.225 357.241 376.365 357.241 378.999V406.108C357.241 408.742 355.1 410.882 352.466 410.882H321.349C320.864 410.882 320.394 411.033 319.988 411.304L310.478 417.876C310.12 418.123 309.618 418.035 309.372 417.669C309.276 417.534 309.229 417.375 309.229 417.216V378.999Z" fill="#BDBDBD"/>
<path d="M324.592 386C323.716 386 323 386.716 323 387.591V387.743C323 388.618 323.716 389.334 324.592 389.334H346.565C347.44 389.334 348.156 388.618 348.156 387.743V387.591C348.156 386.716 347.44 386 346.565 386H324.592ZM324.592 394.729C323.716 394.729 323 395.445 323 396.32V396.471C323 397.346 323.716 398.063 324.592 398.063H337.842C338.718 398.063 339.434 397.346 339.434 396.471V396.32C339.434 395.445 338.718 394.729 337.842 394.729H324.592Z" fill="white" stroke="white" stroke-width="2"/>
<path fill-rule="evenodd" clip-rule="evenodd" d="M306.666 328.665C310.102 325.199 309.814 317.588 310.746 312.717C313.927 315.115 320.095 309.502 323.835 312.717C324.986 314.117 325.773 318.688 327.267 319.681C327.692 319.964 328.197 320.238 328.681 320.087C329.257 319.906 329.575 317.234 329.711 316.627C330.151 314.685 330.107 314.594 329.452 312.717C328.796 310.84 327.424 309.193 325.627 308.473C323.706 307.703 321.501 305.408 319.506 305.943C317.326 303.313 312.568 306.849 309.89 308.473C307.26 310.066 305.816 315.945 304.7 318.879C303.586 321.813 303.591 327.516 306.279 329" fill="#999999"/>
</g>
<defs>
<linearGradient id="paint0_linear_948_19032" x1="1172.82" y1="822.901" x2="890.691" y2="-449.549" gradientUnits="userSpaceOnUse">
<stop stop-color="white"/>
<stop offset="1" stop-color="#EEEEEE"/>
</linearGradient>
<linearGradient id="paint1_linear_948_19032" x1="1200.59" y1="332.161" x2="1075.47" y2="-229.916" gradientUnits="userSpaceOnUse">
<stop stop-color="white"/>
<stop offset="1" stop-color="#EEEEEE"/>
</linearGradient>
<linearGradient id="paint2_linear_948_19032" x1="1277.94" y1="248.446" x2="1535.54" y2="126.788" gradientUnits="userSpaceOnUse">
<stop stop-color="white"/>
<stop offset="1" stop-color="#EEEEEE"/>
</linearGradient>
<linearGradient id="paint3_linear_948_19032" x1="1480.92" y1="425.153" x2="1392.43" y2="461.701" gradientUnits="userSpaceOnUse">
<stop stop-color="white"/>
<stop offset="1" stop-color="#EEEEEE"/>
</linearGradient>
<linearGradient id="paint4_linear_948_19032" x1="747.172" y1="364.847" x2="650.041" y2="212.649" gradientUnits="userSpaceOnUse">
<stop stop-color="white"/>
<stop offset="1" stop-color="#EEEEEE"/>
</linearGradient>
<linearGradient id="paint5_linear_948_19032" x1="533.345" y1="470.498" x2="479.224" y2="492.856" gradientUnits="userSpaceOnUse">
<stop stop-color="white"/>
<stop offset="1" stop-color="#EEEEEE"/>
</linearGradient>
<clipPath id="clip0_948_19032">
<rect width="2045" height="555" fill="white" transform="translate(-311)"/>
</clipPath>
<clipPath id="clip1_948_19032">
<rect width="597" height="364" fill="white" transform="translate(-65 185)"/>
</clipPath>
</defs>
</svg>
