<svg width="18" height="16" viewBox="0 0 18 16" fill="none" xmlns="http://www.w3.org/2000/svg">
<path d="M14.0278 8.82223L8.93334 13.9167L2.54446 7.52779C1.91668 6.90001 1.57223 6.06667 1.57223 5.17779C1.57223 4.2889 1.91668 3.45556 2.54446 2.82779C3.41668 1.95556 4.69446 1.6389 5.87779 2.00001C6.17223 2.0889 6.48334 1.92779 6.57223 1.63334C6.66112 1.3389 6.50001 1.02779 6.20557 0.938899C4.62779 0.455565 2.92779 0.877787 1.76112 2.0389C0.922232 2.87779 0.461121 3.9889 0.461121 5.17223C0.461121 6.35556 0.922232 7.47223 1.76112 8.30556L8.5389 15.0833C8.65001 15.1945 8.7889 15.2445 8.93334 15.2445C9.07779 15.2445 9.21668 15.1889 9.32779 15.0833L14.8111 9.60001C15.0278 9.38334 15.0278 9.03334 14.8111 8.81668C14.5945 8.60001 14.2445 8.60001 14.0278 8.81668V8.82223Z" fill="#4F4F4F"/>
<path d="M16.2389 2.04447C14.5111 0.316696 11.6945 0.316697 9.98891 2.02225L8.98891 2.92225L8.36669 2.38336C8.13336 2.18336 7.78336 2.20559 7.58336 2.43892C7.38336 2.67225 7.40558 3.02225 7.63891 3.22225L8.6278 4.08892C8.83891 4.27225 9.15558 4.27225 9.36669 4.08892L10.75 2.83892C12.0445 1.54447 14.1556 1.54447 15.45 2.83892C16.0778 3.4667 16.4222 4.30003 16.4222 5.18892C16.4222 6.07781 16.0778 6.91114 15.45 7.53892C15.2334 7.75558 15.2334 8.10559 15.45 8.32225C15.5611 8.43336 15.7 8.48336 15.8445 8.48336C15.9889 8.48336 16.1278 8.42781 16.2389 8.32225C17.0778 7.48336 17.5389 6.37225 17.5389 5.18892C17.5389 4.00558 17.0778 2.88892 16.2389 2.05558V2.04447Z" fill="#4F4F4F"/>
</svg>