<svg width="669" height="593" viewBox="0 0 669 593" fill="none" xmlns="http://www.w3.org/2000/svg">
<path fill-rule="evenodd" clip-rule="evenodd" d="M398.635 323.749C392.897 329.155 390.716 337.569 396.188 344.059C401.342 350.174 411.313 351.47 417.749 346.595C433.291 334.836 417.092 313.132 400.322 317.624C397.218 318.455 397.992 322.797 401.06 322.969C405.962 323.241 411.211 323.423 415.13 326.794C419.334 330.415 419.429 336.537 415.978 340.699C406.839 351.721 390.961 335.491 400.56 325.637C401.773 324.394 399.902 322.557 398.635 323.749Z" fill="#7CABFF"/>
<path fill-rule="evenodd" clip-rule="evenodd" d="M205.689 356.744C206.45 361.648 211.587 372.023 216.994 373.456C219.872 374.221 222.01 372.341 224.247 370.813C228.313 368.037 232.326 365.197 236.346 362.361C237.808 361.327 238.672 359.337 237.584 357.676C234.026 352.25 230.473 346.82 226.915 341.391C225.965 339.945 223.774 339.052 222.195 340.167C217.759 343.278 212.953 346.147 208.954 349.798C206.201 352.313 209.708 356.427 212.835 354.786C217.371 352.405 221.487 349.018 225.677 346.08C224.101 345.667 222.529 345.258 220.957 344.848C224.51 350.278 228.068 355.704 231.622 361.129C232.034 359.57 232.447 358.007 232.86 356.448C230.448 358.148 228.029 359.845 225.624 361.556C224.261 362.526 219.701 366.763 218.185 366.594C216.827 366.442 213.981 361.648 213.145 360.66C211.437 358.649 209.836 356.748 207.634 355.259C206.574 354.539 205.532 355.725 205.689 356.744Z" fill="#FBC580"/>
<path fill-rule="evenodd" clip-rule="evenodd" d="M296.107 348.968C302.435 341.368 308.836 332.901 313.781 324.166C315.342 321.41 311.495 318.259 309.528 320.768C303.391 328.593 297.95 337.796 293.244 346.684C292.247 348.569 294.731 350.618 296.107 348.968Z" fill="#FF7081"/>
<path fill-rule="evenodd" clip-rule="evenodd" d="M259.038 300.607C258.877 300.466 258.716 300.321 258.555 300.18C256.431 298.293 252.948 297.923 250.881 300.18C248.794 302.461 248.868 305.589 250.881 307.872C251.025 308.034 251.166 308.192 251.307 308.353C253.21 310.506 257.125 310.445 259.038 308.353C260.941 306.278 261.327 302.635 259.038 300.607Z" fill="#241352"/>
<path fill-rule="evenodd" clip-rule="evenodd" d="M365.272 372.298C367.168 362.65 368.704 352.268 369.082 342.39C369.199 339.311 364.786 338.541 364.278 341.652C362.681 351.428 362.106 361.873 362.041 371.797C362.029 373.869 364.86 374.39 365.272 372.298Z" fill="#FF957E"/>
<path fill-rule="evenodd" clip-rule="evenodd" d="M413.998 403.92C413.837 403.778 413.676 403.637 413.515 403.493C411.391 401.609 407.905 401.239 405.841 403.493C403.751 405.773 403.828 408.905 405.841 411.185L406.267 411.67C408.17 413.822 412.086 413.758 413.998 411.67C415.901 409.594 416.283 405.951 413.998 403.92Z" fill="#241352"/>
<mask id="mask0_406_19084" style="mask-type:alpha" maskUnits="userSpaceOnUse" x="7" y="296" width="295" height="297">
<path d="M7.03174 296.708H301.779V593H7.03174V296.708Z" fill="white"/>
</mask>
<g mask="url(#mask0_406_19084)">
<path fill-rule="evenodd" clip-rule="evenodd" d="M301.779 444.854C301.779 526.672 235.797 593.003 154.405 593.003C73.0101 593.003 7.03174 526.672 7.03174 444.854C7.03174 363.036 73.0101 296.708 154.405 296.708C235.797 296.708 301.779 363.036 301.779 444.854Z" fill="white"/>
</g>
<path fill-rule="evenodd" clip-rule="evenodd" d="M176.09 394.504L275.438 432.17L265.953 391.596L291.789 384.955C291.789 384.955 319.581 464.271 300.28 466.394C266.491 470.113 215.367 456.581 215.367 456.581L176.09 394.504Z" fill="#FFAFA7"/>
<path fill-rule="evenodd" clip-rule="evenodd" d="M209.899 483.937L209.681 561.304C184.632 592.623 97.4274 552.123 97.4274 552.123L96.4096 520.483L94.3843 445.113C96.3926 415.1 123.804 400.367 123.804 400.367C135.132 394.627 152.414 391.366 167.987 392.145C184.237 392.965 188.254 400.879 194.949 415.962C200.362 428.151 209.899 439.581 209.899 483.937Z" fill="#6F35A5"/>
<path fill-rule="evenodd" clip-rule="evenodd" d="M132.91 468.456C132.91 468.456 120.489 542.239 138.006 540.424C195.624 534.452 229.933 533.648 229.933 533.648L239.483 553.634C239.704 557.04 130.368 588.585 112.799 578.159C100.395 570.791 80.6338 550.956 89.6038 491.669L91.7232 471.795L132.91 468.456Z" fill="#FFAFA7"/>
<path fill-rule="evenodd" clip-rule="evenodd" d="M100.787 421.611C100.787 421.611 87.4937 434.658 84.5229 484.023L135.966 478.206C135.966 478.206 144.539 394.126 100.787 421.611Z" fill="#6F35A5"/>
<path fill-rule="evenodd" clip-rule="evenodd" d="M125.795 318.871L126.965 334.37C126.965 334.37 113.855 336.146 117.595 348.169C121.331 360.189 130.297 354.928 130.297 354.928C130.297 354.928 132.54 385.731 163.93 375.965C188.911 368.19 187.383 335.674 184.212 307.951C182.981 297.21 172.876 289.827 162.319 291.894L143.448 295.587C132.543 297.724 124.954 307.732 125.795 318.871Z" fill="#FFAFA7"/>
<path fill-rule="evenodd" clip-rule="evenodd" d="M128.193 345.327L136.795 391.175C138.731 401.507 148.919 408.114 159.144 405.677C168.62 403.415 174.688 394.163 172.987 384.571L168.318 358.292L128.193 345.327Z" fill="#FFAFA7"/>
<path fill-rule="evenodd" clip-rule="evenodd" d="M163.441 346.855C163.521 346.77 163.689 347.27 164.067 347.341C164.436 347.398 164.999 346.798 165.135 345.531C165.324 344.274 165.22 342.621 165.106 340.707C165.008 338.65 164.912 336.618 164.812 334.487C164.459 325.653 164.436 318.469 164.764 318.437C165.092 318.405 165.641 325.535 165.996 334.369C166.064 336.504 166.131 338.543 166.197 340.6C166.244 342.489 166.29 344.356 165.939 345.902C165.666 347.516 164.607 348.516 163.947 348.037C163.314 347.534 163.398 346.845 163.441 346.855Z" fill="#241352"/>
<path fill-rule="evenodd" clip-rule="evenodd" d="M174.67 373.666C174.817 373.823 173.522 375.097 170.848 376.473C168.203 377.849 164.07 379.199 159.311 379.289C154.553 379.378 150.356 378.185 147.649 376.911C144.914 375.637 143.563 374.412 143.699 374.252C143.938 373.788 150.281 377.82 159.272 377.618C168.263 377.477 174.413 373.212 174.67 373.666Z" fill="#241352"/>
<path fill-rule="evenodd" clip-rule="evenodd" d="M166.191 352.031C166.362 352.151 165.97 353.106 164.62 354.027C163.318 354.939 160.92 355.682 158.401 354.913C155.893 354.115 154.389 352.148 153.877 350.672C153.334 349.154 153.585 348.158 153.796 348.158C154.061 348.135 154.268 349.018 154.992 350.161C155.692 351.291 157.038 352.695 158.934 353.298C160.836 353.884 162.772 353.506 164.021 352.982C165.29 352.464 165.99 351.865 166.191 352.031Z" fill="#241352"/>
<path fill-rule="evenodd" clip-rule="evenodd" d="M125.339 349.264C125.342 349.446 124.832 349.764 123.93 349.419C123.501 349.244 122.927 348.741 122.683 347.867C122.56 347.445 122.505 346.925 122.628 346.378C122.726 345.849 123.117 345.273 123.549 345.092C124.138 344.777 124.963 344.964 125.342 345.808L124.334 346.488C123.674 344.316 123.352 342.646 123.599 342.506C123.846 342.363 124.581 343.793 125.376 345.888L124.366 346.575C124.344 346.527 124.177 346.435 123.971 346.536C123.75 346.625 123.649 346.97 123.725 347.425C123.798 347.859 124.017 348.183 124.289 348.429C124.835 348.899 125.353 349.035 125.339 349.264Z" fill="#241352"/>
<path fill-rule="evenodd" clip-rule="evenodd" d="M150.72 318.131C150.587 318.53 149.342 318.518 147.963 318.875C146.573 319.195 145.495 319.775 145.17 319.489C144.833 319.243 145.695 317.901 147.559 317.448C149.427 316.99 150.884 317.763 150.72 318.131Z" fill="#241352"/>
<path fill-rule="evenodd" clip-rule="evenodd" d="M177.479 313.022C177.284 313.407 175.768 313.217 173.994 313.364C172.217 313.478 170.762 313.888 170.493 313.537C170.204 313.22 171.582 312.057 173.843 311.895C176.104 311.725 177.697 312.668 177.479 313.022Z" fill="#241352"/>
<path fill-rule="evenodd" clip-rule="evenodd" d="M130.621 333.17C139.195 324.517 141.714 310.101 144.04 297.943C151.98 303.93 162.902 305.401 172.057 301.721C174.93 305.216 178.306 308.267 182.037 310.744C183.097 311.45 184.356 312.135 185.565 311.758C187.003 311.307 187.644 309.602 187.985 308.085C189.082 303.238 189.123 298.048 187.489 293.362C185.852 288.679 182.428 284.566 177.942 282.77C173.148 280.847 167.753 281.683 162.773 283.018C155.275 285.031 148.047 288.123 141.363 292.177C134.8 296.154 128.5 301.421 125.715 308.742C122.933 316.067 122.947 330.3 129.655 334.005" fill="#241352"/>
<path fill-rule="evenodd" clip-rule="evenodd" d="M179.69 395.18C170.965 391.845 238.073 415.81 238.073 415.81L231.265 459.964L205.74 451.91L179.69 395.18Z" fill="#6F35A5"/>
<path fill-rule="evenodd" clip-rule="evenodd" d="M223.486 533.036C223.486 533.036 251.842 524.15 250.869 527.071C249.896 529.996 245.068 530.104 240.247 534.821C240.247 534.821 271.945 535.163 270.421 537.774C268.896 540.381 248.263 541.037 248.138 541.483C248.016 541.929 270.707 542.483 270.198 544.896C269.685 547.308 248.598 546.722 248.598 546.722C248.598 546.722 268.143 548.797 267.745 551.401C267.344 554.005 249.324 552.129 249.324 552.129C249.324 552.129 264.407 553.851 264.013 556.204C263.772 557.644 219.851 557.968 219.76 559.025C219.712 559.579 223.486 533.036 223.486 533.036Z" fill="#FFAFA7"/>
<path fill-rule="evenodd" clip-rule="evenodd" d="M266.575 394.862C266.575 394.862 249.476 370.677 252.525 370.687C255.573 370.698 257.163 375.252 263.083 378.372C263.083 378.372 253.637 348.122 256.557 348.757C259.484 349.391 266.46 368.805 266.918 368.787C267.372 368.763 260.897 347.015 263.326 346.745C265.75 346.478 271.698 366.712 271.698 366.712C271.698 366.712 267.624 347.477 270.195 347.046C272.769 346.615 276.558 364.335 276.558 364.335C276.558 364.335 273.527 349.455 275.865 349.09C277.289 348.873 290.196 385.782 290.196 385.782C289.857 385.782 266.575 394.862 266.575 394.862Z" fill="#FFAFA7"/>
<path fill-rule="evenodd" clip-rule="evenodd" d="M110.45 459.964C110.633 459.945 111.255 460.984 111.289 463.048C111.282 464.048 110.846 465.498 109.487 466.407C108.837 466.86 107.87 467.183 106.869 466.977C105.879 466.784 105.131 466.154 104.59 465.603C103.505 464.416 102.795 463.713 101.679 463.589C100.614 463.431 99.65 463.766 99.0312 464.295C97.7327 465.406 97.7733 466.689 97.5096 466.673C97.3337 466.777 96.6608 465.302 98.1216 463.497C98.8351 462.636 100.269 461.933 101.865 462.079C102.653 462.139 103.495 462.405 104.205 462.912C104.898 463.402 105.392 463.994 105.879 464.482C107.627 466.717 109.923 464.533 110.048 462.928C110.325 461.227 110.163 459.983 110.45 459.964Z" fill="#FCF2FC"/>
<path fill-rule="evenodd" clip-rule="evenodd" d="M125.388 447.388C125.279 447.244 125.891 446.175 127.727 445.034C128.628 444.5 130.155 444.08 131.662 444.716C132.401 445.008 133.186 445.637 133.515 446.575C133.848 447.499 133.665 448.46 133.449 449.2C132.937 450.738 132.67 451.705 133.129 452.698C133.532 453.665 134.33 454.284 135.122 454.511C136.779 454.983 137.91 454.261 138.033 454.488C138.216 454.576 137.235 455.927 134.869 455.691C133.732 455.566 132.364 454.756 131.679 453.357C131.333 452.668 131.14 451.829 131.23 450.974C131.316 450.131 131.593 449.404 131.779 448.738C132.89 446.09 129.76 445.362 128.249 446.126C126.589 446.811 125.551 447.617 125.388 447.388Z" fill="#FCF2FC"/>
<path fill-rule="evenodd" clip-rule="evenodd" d="M125.388 414.838C125.279 414.693 125.891 413.625 127.724 412.484C128.625 411.95 130.152 411.527 131.662 412.166C132.401 412.458 133.186 413.084 133.512 414.025C133.848 414.949 133.665 415.909 133.449 416.65C132.937 418.187 132.667 419.154 133.129 420.144C133.532 421.114 134.327 421.73 135.119 421.959C136.779 422.431 137.91 421.71 138.033 421.936C138.216 422.025 137.235 423.375 134.866 423.139C133.728 423.011 132.364 422.202 131.679 420.806C131.333 420.118 131.14 419.278 131.227 418.42C131.313 417.581 131.593 416.853 131.779 416.188C132.89 413.54 129.76 412.812 128.249 413.576C126.586 414.261 125.551 415.067 125.388 414.838Z" fill="#FCF2FC"/>
<path fill-rule="evenodd" clip-rule="evenodd" d="M155.67 457.117C155.531 457.235 154.37 456.74 153.029 455.082C152.396 454.265 151.824 452.84 152.345 451.342C152.583 450.614 153.162 449.809 154.105 449.416C155.03 449.017 156.038 449.109 156.824 449.256C158.461 449.611 159.486 449.786 160.47 449.263C161.436 448.796 162.001 447.982 162.168 447.202C162.512 445.577 161.661 444.558 161.886 444.42C161.964 444.238 163.448 445.062 163.411 447.343C163.383 448.442 162.669 449.818 161.283 450.594C160.602 450.984 159.755 451.24 158.856 451.227C157.978 451.214 157.202 451.013 156.497 450.892C153.655 450.052 153.186 453.108 154.108 454.488C154.966 456.018 155.892 456.941 155.67 457.117Z" fill="#FCF2FC"/>
<path fill-rule="evenodd" clip-rule="evenodd" d="M177.49 491.039C177.591 491.203 176.869 492.316 174.866 493.408C173.88 493.918 172.253 494.253 170.727 493.447C169.978 493.065 169.209 492.327 168.937 491.278C168.662 490.247 168.93 489.223 169.215 488.438C169.867 486.804 170.222 485.777 169.822 484.667C169.473 483.583 168.693 482.851 167.881 482.541C166.188 481.895 164.951 482.591 164.84 482.337C164.655 482.223 165.784 480.835 168.24 481.281C169.418 481.506 170.78 482.491 171.386 484.064C171.692 484.838 171.832 485.762 171.672 486.686C171.515 487.593 171.166 488.363 170.919 489.066C169.55 491.856 172.765 492.894 174.403 492.184C176.19 491.571 177.336 490.779 177.49 491.039Z" fill="#FCF2FC"/>
<path fill-rule="evenodd" clip-rule="evenodd" d="M205.663 437.258C205.768 437.422 205.043 438.535 203.04 439.627C202.054 440.137 200.427 440.473 198.901 439.666C198.152 439.285 197.383 438.546 197.111 437.497C196.836 436.47 197.104 435.442 197.39 434.657C198.041 433.023 198.396 431.996 197.996 430.886C197.647 429.802 196.867 429.07 196.055 428.76C194.362 428.114 193.126 428.814 193.014 428.557C192.829 428.442 193.962 427.055 196.414 427.501C197.592 427.725 198.954 428.71 199.56 430.283C199.866 431.058 200.006 431.982 199.846 432.906C199.689 433.812 199.34 434.582 199.093 435.285C197.724 438.075 200.939 439.113 202.577 438.403C204.364 437.79 205.51 436.998 205.663 437.258Z" fill="#FCF2FC"/>
<path fill-rule="evenodd" clip-rule="evenodd" d="M221.899 428.86C222.023 428.717 223.395 429.016 225.215 430.467C226.078 431.191 227.009 432.545 226.764 434.169C226.662 434.959 226.206 435.882 225.264 436.453C224.341 437.024 223.225 437.107 222.336 437.1C220.478 437.027 219.325 437.034 218.368 437.744C217.418 438.395 216.977 439.325 216.962 440.151C216.943 441.874 218.089 442.764 217.874 442.943C217.829 443.146 216.035 442.568 215.579 440.228C215.376 439.102 215.854 437.568 217.196 436.533C217.852 436.008 218.722 435.596 219.702 435.447C220.659 435.304 221.548 435.374 222.344 435.374C225.615 435.722 225.472 432.515 224.168 431.27C222.901 429.859 221.692 429.079 221.899 428.86Z" fill="#FCF2FC"/>
<path fill-rule="evenodd" clip-rule="evenodd" d="M149.315 519.344C149.416 519.508 148.695 520.621 146.692 521.713C145.706 522.223 144.079 522.559 142.553 521.752C141.804 521.371 141.034 520.629 140.762 519.583C140.487 518.552 140.752 517.528 141.038 516.743C141.693 515.109 142.048 514.082 141.644 512.972C141.299 511.888 140.519 511.156 139.707 510.846C138.01 510.2 136.773 510.896 136.665 510.643C136.481 510.525 137.61 509.141 140.062 509.587C141.243 509.808 142.605 510.796 143.212 512.369C143.518 513.144 143.654 514.068 143.497 514.992C143.34 515.898 142.992 516.668 142.745 517.371C141.376 520.161 144.591 521.199 146.225 520.489C148.016 519.876 149.162 519.084 149.315 519.344Z" fill="#FCF2FC"/>
<path fill-rule="evenodd" clip-rule="evenodd" d="M188.748 465.614C188.603 465.72 187.571 465.059 186.51 463.145C186.011 462.206 185.648 460.629 186.314 459.107C186.625 458.361 187.262 457.578 188.195 457.271C189.112 456.961 190.047 457.179 190.768 457.424C192.26 458 193.199 458.303 194.187 457.867C195.148 457.482 195.779 456.689 196.026 455.889C196.541 454.203 195.862 453.025 196.09 452.909C196.187 452.722 197.48 453.767 197.174 456.182C197.017 457.343 196.184 458.715 194.791 459.369C194.106 459.703 193.28 459.873 192.437 459.75C191.617 459.638 190.909 459.328 190.266 459.117C187.7 457.891 186.892 461.075 187.597 462.645C188.217 464.368 188.976 465.451 188.748 465.614Z" fill="#FCF2FC"/>
<path fill-rule="evenodd" clip-rule="evenodd" d="M197.198 493.92C197.057 494.026 196.021 493.365 194.96 491.451C194.465 490.511 194.098 488.935 194.767 487.412C195.076 486.667 195.716 485.883 196.649 485.58C197.565 485.267 198.498 485.485 199.218 485.734C200.71 486.306 201.653 486.612 202.637 486.173C203.598 485.788 204.228 484.998 204.476 484.194C204.991 482.509 204.315 481.33 204.54 481.215C204.637 481.027 205.93 482.073 205.627 484.487C205.47 485.648 204.634 487.021 203.241 487.675C202.559 488.008 201.73 488.179 200.887 488.059C200.067 487.944 199.363 487.634 198.716 487.423C196.15 486.197 195.343 489.381 196.047 490.951C196.668 492.674 197.43 493.76 197.198 493.92Z" fill="#FCF2FC"/>
<path fill-rule="evenodd" clip-rule="evenodd" d="M141.171 484.022C140.996 483.998 140.648 482.735 141.08 480.492C141.311 479.408 142.048 477.935 143.524 477.26C144.235 476.915 145.213 476.785 146.107 477.239C146.994 477.675 147.55 478.529 147.933 479.247C148.684 480.78 149.191 481.705 150.208 482.095C151.176 482.507 152.151 482.363 152.853 481.93C154.318 481.023 154.568 479.627 154.815 479.7C155.004 479.63 155.299 481.381 153.525 483.006C152.661 483.776 151.16 484.209 149.697 483.688C148.97 483.442 148.242 482.96 147.689 482.254C147.15 481.561 146.819 480.808 146.471 480.168C145.337 477.351 142.695 479.187 142.214 480.903C141.574 482.679 141.444 484.072 141.171 484.022Z" fill="#FCF2FC"/>
<path fill-rule="evenodd" clip-rule="evenodd" d="M191.886 517.989C191.711 517.965 191.36 516.702 191.795 514.458C192.026 513.375 192.764 511.902 194.239 511.227C194.951 510.882 195.929 510.752 196.823 511.206C197.71 511.642 198.265 512.496 198.649 513.214C199.4 514.747 199.907 515.672 200.924 516.062C201.892 516.473 202.867 516.329 203.569 515.897C205.034 514.989 205.285 513.593 205.528 513.667C205.717 513.597 206.016 515.348 204.238 516.973C203.38 517.743 201.873 518.179 200.413 517.655C199.686 517.409 198.958 516.927 198.405 516.22C197.866 515.531 197.534 514.775 197.187 514.135C196.052 511.315 193.41 513.154 192.93 514.87C192.289 516.646 192.159 518.038 191.886 517.989Z" fill="#FCF2FC"/>
<path fill-rule="evenodd" clip-rule="evenodd" d="M189.069 413.259C188.894 413.238 188.543 411.971 188.978 409.727C189.206 408.643 189.946 407.169 191.422 406.494C192.133 406.152 193.112 406.022 194.005 406.473C194.892 406.909 195.448 407.764 195.832 408.485C196.582 410.019 197.089 410.944 198.106 411.331C199.075 411.746 200.05 411.602 200.751 411.169C202.217 410.261 202.467 408.861 202.711 408.935C202.899 408.865 203.198 410.62 201.421 412.242C200.563 413.016 199.055 413.449 197.596 412.924C196.868 412.678 196.14 412.2 195.588 411.489C195.048 410.8 194.717 410.043 194.369 409.407C193.235 406.585 190.593 408.425 190.112 410.142C189.472 411.918 189.342 413.308 189.069 413.259Z" fill="#FCF2FC"/>
<path fill-rule="evenodd" clip-rule="evenodd" d="M171.527 532.092C171.427 532.247 170.096 532.105 168.186 530.894C167.274 530.289 166.215 529.078 166.229 527.482C166.219 526.705 166.523 525.763 167.331 525.11C168.125 524.459 169.166 524.255 170.003 524.168C171.763 524.041 172.847 523.912 173.652 523.122C174.46 522.387 174.75 521.439 174.654 520.643C174.439 518.969 173.241 518.234 173.419 518.037C173.434 517.839 175.201 518.202 175.945 520.419C176.292 521.487 176.042 523.019 174.922 524.171C174.371 524.741 173.609 525.236 172.708 525.485C171.824 525.725 170.976 525.754 170.232 525.841C167.102 525.854 167.671 528.942 169.066 530.004C170.447 531.234 171.688 531.859 171.527 532.092Z" fill="#FCF2FC"/>
<path fill-rule="evenodd" clip-rule="evenodd" d="M111.555 428.835C111.718 428.75 112.762 429.476 113.713 431.388C114.153 432.327 114.386 433.855 113.519 435.231C113.109 435.907 112.35 436.584 111.319 436.781C110.303 436.985 109.321 436.687 108.572 436.383C107.025 435.693 106.047 435.315 104.947 435.632C103.875 435.901 103.123 436.587 102.776 437.322C102.054 438.862 102.665 440.044 102.408 440.134C102.29 440.299 101.003 439.183 101.572 436.927C101.857 435.846 102.887 434.632 104.448 434.149C105.214 433.9 106.12 433.819 107.011 434.017C107.878 434.204 108.607 434.567 109.28 434.832C111.913 436.24 113.095 433.311 112.495 431.757C111.999 430.068 111.292 428.964 111.555 428.835Z" fill="#FCF2FC"/>
<path fill-rule="evenodd" clip-rule="evenodd" d="M170.72 418.928C170.887 418.84 171.927 419.569 172.878 421.482C173.318 422.42 173.554 423.948 172.683 425.324C172.278 425.997 171.514 426.677 170.484 426.871C169.468 427.078 168.487 426.777 167.737 426.476C166.194 425.786 165.216 425.404 164.113 425.722C163.041 425.99 162.289 426.68 161.942 427.414C161.224 428.955 161.831 430.137 161.578 430.227C161.456 430.392 160.169 429.272 160.738 427.02C161.023 425.939 162.056 424.725 163.613 424.243C164.38 423.99 165.289 423.912 166.177 424.11C167.047 424.298 167.772 424.66 168.445 424.925C171.081 426.333 172.26 423.404 171.66 421.847C171.164 420.158 170.457 419.057 170.72 418.928Z" fill="#FCF2FC"/>
<path fill-rule="evenodd" clip-rule="evenodd" d="M135.9 478.363C135.769 478.349 135.791 477.096 135.939 474.837C136.088 472.582 136.363 469.317 136.743 465.296C137.5 457.249 138.695 446.13 140.092 433.894C140.415 430.855 140.578 427.898 140.136 425.14C139.727 422.378 138.593 419.896 136.946 417.881C133.622 413.811 128.904 411.696 124.892 410.789C120.826 409.865 117.361 409.91 115 409.975C112.629 410.053 111.311 410.19 111.289 410.053C111.267 409.951 112.546 409.578 114.939 409.28C117.325 409.006 120.873 408.753 125.186 409.557C129.433 410.355 134.582 412.459 138.315 416.871C140.172 419.051 141.497 421.871 141.964 424.873C142.468 427.874 142.294 430.978 141.972 434.069C140.567 446.345 139.166 457.414 138.068 465.432C137.518 469.44 137.04 472.678 136.667 474.913C136.298 477.151 136.03 478.376 135.9 478.363Z" fill="#241352"/>
<path fill-rule="evenodd" clip-rule="evenodd" d="M136.646 477.082C136.697 477.561 125.069 479.149 110.678 480.639C96.2841 482.131 84.5743 482.949 84.5231 482.473C84.4723 481.998 96.0969 480.406 110.494 478.92C124.881 477.428 136.595 476.607 136.646 477.082Z" fill="#241352"/>
<path fill-rule="evenodd" clip-rule="evenodd" d="M264.454 496.878C264.903 493.777 264.816 490.824 266.487 488.088C269.82 482.638 274.55 484.006 279.13 486.405C283.797 488.848 288.189 490.313 293.263 488.03C301.186 484.465 304.906 472.048 297.345 466.207C294.897 464.315 292.483 467.438 292.814 469.826C293.27 473.17 294.865 476.847 292.11 479.717C288.429 483.553 284.11 480.332 280.436 478.61C276.469 476.749 272.248 476.337 268.152 478.06C261.103 481.02 255.99 490.954 261.587 497.664C262.378 498.612 264.265 498.185 264.454 496.878Z" fill="#7E2E84"/>
<path fill-rule="evenodd" clip-rule="evenodd" d="M316.932 383.191C311.19 388.596 309.01 397.007 314.484 403.501C319.634 409.615 329.609 410.912 336.044 406.037C351.585 394.277 335.387 372.574 318.619 377.066C315.514 377.897 316.289 382.234 319.357 382.406C324.258 382.682 329.506 382.865 333.422 386.236C337.629 389.853 337.721 395.975 334.273 400.137C325.131 411.163 309.254 394.929 318.856 385.075C320.065 383.836 318.199 381.998 316.932 383.191Z" fill="#FF7081"/>
<path fill-rule="evenodd" clip-rule="evenodd" d="M87.3091 373.284C81.5711 378.689 79.3869 387.099 84.8619 393.593C90.0155 399.707 99.9867 401.004 106.422 396.132C121.963 384.37 105.765 362.664 88.9965 367.159C85.8919 367.99 86.6662 372.328 89.7343 372.5C94.6359 372.775 99.8844 372.958 103.804 376.329C108.007 379.946 108.099 386.071 104.651 390.23C95.5088 401.254 79.6316 385.022 89.2339 375.168C90.4429 373.929 88.5765 372.091 87.3091 373.284Z" fill="#7CABFF"/>
<path fill-rule="evenodd" clip-rule="evenodd" d="M9.94798 505.307C13.5966 519.354 17.6127 533.237 21.7874 547.126C22.7923 550.466 25.8373 551.515 28.6091 549.564C39.4942 541.899 50.3827 534.359 60.6912 525.869C62.6774 524.232 62.2424 520.941 60.2832 519.546C48.2077 510.951 31.9003 498.267 16.5809 498.176C12.6827 498.155 9.95809 503.841 13.9102 506.205C20.0946 509.902 27.5031 511.22 34.109 514.07C41.7299 517.354 49.2767 521.211 56.0074 526.194C56.1557 523.886 56.3075 521.585 56.4559 519.28C44.9334 526.638 34.082 534.887 23.1227 543.112L29.5938 544.451C24.9167 530.733 20.1182 517.116 14.9353 503.6C13.8394 500.743 9.16903 502.31 9.94798 505.307Z" fill="#FF7081"/>
<path fill-rule="evenodd" clip-rule="evenodd" d="M333.796 446.806C343.529 448.038 353.788 448.896 363.611 448.574C367.218 448.455 367.086 443.92 363.611 443.597C354.024 442.695 343.896 442.886 334.289 443.516C332.36 443.641 331.594 446.524 333.796 446.806Z" fill="#FBC580"/>
<path fill-rule="evenodd" clip-rule="evenodd" d="M6.97277 446.806C16.7049 448.038 26.9643 448.896 36.7866 448.574C40.3971 448.455 40.2619 443.92 36.7866 443.597C27.2001 442.695 17.0726 442.886 7.46528 443.516C5.53688 443.641 4.77038 446.524 6.97277 446.806Z" fill="#FBC580"/>
<path fill-rule="evenodd" clip-rule="evenodd" d="M71.6785 430.811C71.5175 430.667 71.3564 430.525 71.1953 430.384C69.0711 428.5 65.5877 428.127 63.5206 430.384C61.4333 432.665 61.5104 435.793 63.5206 438.077L63.9501 438.561C65.8495 440.71 69.7657 440.65 71.6785 438.561C73.5813 436.482 73.9672 432.839 71.6785 430.811Z" fill="#241352"/>
<path fill-rule="evenodd" clip-rule="evenodd" d="M209.17 478.363C208.806 478.339 208.471 469.847 207.758 459.322C207.043 448.78 207.364 440.123 207.812 440.15C208.175 440.171 208.508 448.662 209.223 459.191C209.936 469.73 209.618 478.39 209.17 478.363Z" fill="#241352"/>
<path fill-rule="evenodd" clip-rule="evenodd" d="M266.248 397.859L292.85 390.616L294.422 395.294L267.587 403.353L266.248 397.859Z" fill="#241352"/>
<path fill-rule="evenodd" clip-rule="evenodd" d="M281.744 396.278C281.744 397.842 280.481 399.107 278.928 399.107C277.372 399.107 276.109 397.842 276.109 396.278C276.109 394.715 277.372 393.446 278.928 393.446C280.481 393.446 281.744 394.715 281.744 396.278Z" fill="#E6E2EB"/>
<path fill-rule="evenodd" clip-rule="evenodd" d="M177.225 325.457C176.89 325.66 176.205 325.304 175.54 324.578C174.881 323.86 174.596 322.959 174.957 322.739C175.289 322.536 175.977 322.892 176.642 323.618C177.298 324.336 177.583 325.237 177.225 325.457Z" fill="#241352"/>
<path fill-rule="evenodd" clip-rule="evenodd" d="M156.094 328.287C155.759 328.49 155.074 328.134 154.409 327.408C153.75 326.691 153.466 325.789 153.826 325.57C154.159 325.367 154.846 325.723 155.508 326.449C156.167 327.166 156.452 328.068 156.094 328.287Z" fill="#241352"/>
<path fill-rule="evenodd" clip-rule="evenodd" d="M132.42 219.001V271.595H97.7654L96.6619 291.546L76.2974 270.444H0L6.71925 215.122L132.42 219.001Z" fill="#FBC580"/>
<path fill-rule="evenodd" clip-rule="evenodd" d="M118.051 236.112C84.5672 235.557 50.8629 235.362 17.3825 235.945C16.7456 235.956 16.7456 236.746 17.3825 236.757C50.8629 237.34 84.5672 237.145 118.051 236.59C118.426 236.584 118.426 236.117 118.051 236.112Z" fill="#E6E2EB"/>
<path fill-rule="evenodd" clip-rule="evenodd" d="M118.051 246.018C84.5672 245.464 50.8629 245.268 17.3825 245.851C16.7456 245.863 16.7456 246.652 17.3825 246.664C50.8629 247.247 84.5672 247.052 118.051 246.497C118.426 246.491 118.426 246.024 118.051 246.018Z" fill="#E6E2EB"/>
<path fill-rule="evenodd" clip-rule="evenodd" d="M116.645 255.925C96.3444 255.395 75.7133 255.237 55.4127 255.758C54.7824 255.775 54.7824 256.553 55.4127 256.57C75.7133 257.094 96.3444 256.932 116.645 256.403C117.016 256.394 117.016 255.933 116.645 255.925Z" fill="#E6E2EB"/>
<path fill-rule="evenodd" clip-rule="evenodd" d="M373 423.5C373 505.514 439.262 572 521 572C602.738 572 669 505.514 669 423.5C669 341.486 602.738 275 521 275C439.262 275 373 341.486 373 423.5Z" fill="white"/>
<path fill-rule="evenodd" clip-rule="evenodd" d="M534.792 281.407C539.459 280.09 544.449 279.515 549.208 280.485C553.965 281.455 558.466 284.102 560.873 288.117C563.624 292.7 563.363 298.308 563.025 303.572C562.175 316.76 561.325 329.949 560.479 343.134C560.242 346.792 560.034 350.603 561.53 353.985C563.029 357.364 566.785 360.144 570.572 359.402C572.499 359.024 574.124 357.823 575.953 357.122C577.779 356.425 580.214 356.398 581.358 357.915C582.04 358.817 582.069 360.021 581.94 361.127C581.38 366.003 578.198 370.542 573.675 372.921C576.337 371.699 579.673 374.248 579.716 377.045C579.762 379.848 577.38 382.268 574.636 383.312C571.896 384.353 568.851 384.316 565.899 384.262C568.331 384.299 570.207 386.766 569.966 389.063C569.726 391.356 567.818 393.272 565.576 394.17C563.337 395.068 560.816 395.106 558.395 394.891C553.247 394.439 548.111 392.87 544.054 389.828C536.97 384.513 534.1 375.442 534.003 366.874C533.903 358.306 536.148 349.888 537.411 341.406C540.334 321.721 537.942 301.717 535.549 281.972C536.134 281.805 536.711 281.639 537.292 281.472" fill="#FF7081"/>
<path fill-rule="evenodd" clip-rule="evenodd" d="M392.984 523.221C390.996 520.987 388.801 519.273 387.805 516.284C385.817 510.327 389.613 507.37 394.07 505.153C398.607 502.894 402.269 500.263 403.615 494.827C405.72 486.335 398.901 475.863 390.184 478.381C387.357 479.199 388.199 483.013 390.13 484.196C392.827 485.846 396.442 486.792 396.896 490.73C397.504 495.996 392.603 497.501 389.178 499.399C385.476 501.453 382.683 504.58 381.504 508.893C379.482 516.323 383.669 526.412 391.858 525.987C393.014 525.927 393.819 524.16 392.984 523.221Z" fill="#7E2E84"/>
<path fill-rule="evenodd" clip-rule="evenodd" d="M582.016 387.088C582.744 391.708 587.659 401.486 592.832 402.835C595.585 403.553 597.631 401.781 599.772 400.342C603.659 397.73 607.501 395.051 611.347 392.379C612.746 391.405 613.573 389.534 612.531 387.966C609.128 382.854 605.728 377.739 602.324 372.627C601.416 371.261 599.319 370.424 597.808 371.471C593.564 374.402 588.966 377.104 585.14 380.547C582.506 382.917 585.858 386.792 588.853 385.244C593.193 383 597.131 379.81 601.14 377.041C599.632 376.652 598.128 376.27 596.623 375.881C600.024 380.996 603.427 386.108 606.827 391.223C607.222 389.75 607.617 388.278 608.012 386.809C605.704 388.414 603.39 390.009 601.089 391.621C599.785 392.535 595.422 396.527 593.972 396.367C592.672 396.225 589.946 391.708 589.149 390.781C587.516 388.883 585.988 387.091 583.877 385.692C582.86 385.011 581.862 386.128 582.016 387.088Z" fill="#FBC580"/>
<path fill-rule="evenodd" clip-rule="evenodd" d="M601.689 466.15C593.587 470.057 585.619 474.184 577.67 478.414C575.756 479.433 575.454 481.532 576.937 483.123C582.764 489.375 588.512 495.646 594.772 501.432C595.978 502.548 597.923 501.908 598.553 500.478C602.44 491.678 608.341 479.679 606.727 469.692C606.315 467.153 602.577 465.998 601.577 468.828C600.012 473.259 600.021 478.227 599.017 482.839C597.858 488.159 596.349 493.492 594.064 498.418L598.297 497.959C592.589 491.257 586.414 485.086 580.245 478.848C580.211 480.3 580.173 481.755 580.136 483.207C587.929 478.67 595.651 474.061 603.266 469.21C604.872 468.188 603.419 465.316 601.689 466.15Z" fill="#FF7081"/>
<path fill-rule="evenodd" clip-rule="evenodd" d="M499 377.537L399.663 415.164L409.144 374.631L383.31 368C383.31 368 355.521 447.237 374.82 449.354C408.606 453.069 459.73 439.551 459.73 439.551L499 377.537Z" fill="#FFAFA7"/>
<path fill-rule="evenodd" clip-rule="evenodd" d="M464 465.335L464.217 543.063C489.155 574.527 575.97 533.839 575.97 533.839L576.984 502.051L579 426.331C577.001 396.177 549.711 381.375 549.711 381.375C538.434 375.609 521.229 372.329 505.729 373.115C489.548 373.936 485.549 381.89 478.883 397.043C473.499 409.289 464 420.773 464 465.335Z" fill="#241352"/>
<path fill-rule="evenodd" clip-rule="evenodd" d="M545.001 301.536L543.815 317.154C543.815 317.154 557.109 318.947 553.321 331.06C549.532 343.173 540.436 337.872 540.436 337.872C540.436 337.872 538.162 368.916 506.334 359.071C480.998 351.239 482.548 318.469 485.763 290.531C487.012 279.708 497.259 272.267 507.964 274.35L527.1 278.076C538.159 280.225 545.855 290.311 545.001 301.536Z" fill="#FFAFA7"/>
<path fill-rule="evenodd" clip-rule="evenodd" d="M545 329L536.417 374.956C534.484 385.313 524.311 391.935 514.103 389.492C504.645 387.225 498.587 377.948 500.285 368.337L504.946 341.996L545 329Z" fill="#FFAFA7"/>
<path fill-rule="evenodd" clip-rule="evenodd" d="M507.969 331.642C508.015 331.631 508.104 332.35 507.43 332.875C506.727 333.374 505.6 332.331 505.309 330.648C504.935 329.035 504.984 327.091 505.035 325.117C505.105 322.968 505.175 320.845 505.25 318.618C505.626 309.404 506.213 301.963 506.56 302C506.909 302.03 506.885 309.527 506.509 318.741C506.402 320.961 506.3 323.084 506.196 325.229C506.075 327.225 505.963 328.949 506.165 330.26C506.31 331.582 506.909 332.208 507.302 332.145C507.704 332.074 507.884 331.549 507.969 331.642Z" fill="#241352"/>
<path fill-rule="evenodd" clip-rule="evenodd" d="M500.011 355.036C500.268 354.554 506.419 359.077 515.413 359.23C524.407 359.44 530.755 355.165 530.991 355.657C531.127 355.827 529.775 357.126 527.039 358.477C524.332 359.827 520.134 361.093 515.374 360.995C510.614 360.903 506.48 359.471 503.834 358.012C501.159 356.553 499.868 355.202 500.011 355.036Z" fill="#241352"/>
<path fill-rule="evenodd" clip-rule="evenodd" d="M505.042 337.284C505.263 337.143 506.033 337.652 507.438 338.091C508.814 338.535 510.956 338.856 513.053 338.359C515.15 337.848 516.637 336.657 517.406 335.696C518.209 334.73 518.438 333.981 518.73 334C518.96 334 519.241 334.846 518.638 336.133C518.072 337.384 516.411 339.049 513.645 339.728C510.863 340.38 508.211 339.751 506.776 338.977C505.286 338.196 504.853 337.386 505.042 337.284Z" fill="#241352"/>
<path fill-rule="evenodd" clip-rule="evenodd" d="M545.039 330.695C545.024 330.469 545.576 330.333 546.158 329.869C546.447 329.627 546.681 329.307 546.761 328.874C546.839 328.424 546.732 328.086 546.496 327.998C546.279 327.898 546.099 327.989 546.075 328.033L545 327.357C545.846 325.28 546.629 323.869 546.892 324.01C547.155 324.148 546.812 325.801 546.109 327.951L545.036 327.274C545.443 326.439 546.321 326.257 546.946 326.566C547.408 326.748 547.821 327.319 547.926 327.842C548.057 328.38 547.999 328.895 547.87 329.316C547.607 330.18 546.999 330.677 546.542 330.848C545.579 331.189 545.039 330.874 545.039 330.695Z" fill="#241352"/>
<path fill-rule="evenodd" clip-rule="evenodd" d="M524.013 302.095C523.839 301.606 525.391 300.577 527.376 301.189C529.364 301.79 530.283 303.571 529.924 303.898C529.575 304.278 528.43 303.504 526.949 303.083C525.481 302.606 524.156 302.624 524.013 302.095Z" fill="#241352"/>
<path fill-rule="evenodd" clip-rule="evenodd" d="M496.02 296.91C495.803 296.321 497.389 294.751 499.636 295.034C501.883 295.303 503.249 297.24 502.962 297.768C502.695 298.353 501.249 297.669 499.483 297.481C497.72 297.231 496.214 297.551 496.02 296.91Z" fill="#241352"/>
<path fill-rule="evenodd" clip-rule="evenodd" d="M542.324 317.171C533.723 308.578 531.196 294.263 528.863 282.19C520.898 288.135 509.943 289.596 500.76 285.941C497.878 289.412 494.491 292.445 490.75 294.905C489.686 295.606 488.423 296.283 487.211 295.908C485.768 295.464 485.125 293.767 484.783 292.264C483.686 287.448 483.645 282.294 485.284 277.644C486.923 272.994 490.357 268.906 494.857 267.122C499.666 265.213 505.081 266.043 510.076 267.368C517.597 269.367 524.847 272.439 531.548 276.464C538.132 280.417 544.454 285.643 547.244 292.917C550.038 300.187 550.024 314.325 543.292 318" fill="#FF7081"/>
<path fill-rule="evenodd" clip-rule="evenodd" d="M494.206 379.318C503.057 375.989 435 399.915 435 399.915L441.901 444L467.787 435.959L494.206 379.318Z" fill="#241352"/>
<path fill-rule="evenodd" clip-rule="evenodd" d="M405.22 378C405.22 378 422.752 353.369 419.627 353.384C416.501 353.394 414.871 358.031 408.801 361.205C408.801 361.205 418.49 330.406 415.492 331.052C412.491 331.698 405.341 351.467 404.872 351.445C404.403 351.424 411.042 329.274 408.552 329.003C406.066 328.731 399.967 349.336 399.967 349.336C399.967 349.336 404.144 329.749 401.509 329.31C398.873 328.871 394.984 346.915 394.984 346.915C394.984 346.915 398.092 331.762 395.694 331.391C394.234 331.169 381 368.755 381 368.755C381.348 368.755 405.22 378 405.22 378Z" fill="#FFAFA7"/>
<mask id="mask1_406_19084" style="mask-type:alpha" maskUnits="userSpaceOnUse" x="326" y="257" width="133" height="77">
<path d="M326.783 257.579H458.302V333.692H326.783V257.579Z" fill="white"/>
</mask>
<g mask="url(#mask1_406_19084)">
<path fill-rule="evenodd" clip-rule="evenodd" d="M458.302 261.442V313.825H423.883L422.787 333.692L402.561 312.675H326.783L333.457 257.579L458.302 261.442Z" fill="#FF957E"/>
<path fill-rule="evenodd" clip-rule="evenodd" d="M443.414 275.084C409.933 274.527 376.233 274.334 342.753 274.917C342.119 274.929 342.119 275.718 342.753 275.73C376.233 276.313 409.933 276.117 443.414 275.56C443.785 275.557 443.789 275.09 443.414 275.084Z" fill="#E6E2EB"/>
<path fill-rule="evenodd" clip-rule="evenodd" d="M443.414 286.406C409.933 285.851 376.233 285.655 342.753 286.239C342.119 286.25 342.119 287.04 342.753 287.051C376.233 287.634 409.933 287.439 443.414 286.884C443.785 286.878 443.789 286.411 443.414 286.406Z" fill="#E6E2EB"/>
<path fill-rule="evenodd" clip-rule="evenodd" d="M439.191 297.729C418.892 297.199 398.264 297.038 377.962 297.562C377.335 297.579 377.335 298.357 377.962 298.374C398.264 298.895 418.892 298.736 439.191 298.207C439.559 298.198 439.562 297.737 439.191 297.729Z" fill="#E6E2EB"/>
</g>
<path fill-rule="evenodd" clip-rule="evenodd" d="M496.828 310.943C496.53 311.17 496.08 310.688 495.655 310.075C495.237 309.449 494.9 308.783 495.027 308.305C495.143 307.837 495.871 307.855 496.467 308.73C497.063 309.604 497.122 310.734 496.828 310.943Z" fill="#241352"/>
<path fill-rule="evenodd" clip-rule="evenodd" d="M523.778 311.985C523.369 312.082 522.659 311.701 521.967 311.21C521.282 310.713 520.796 310.243 521.085 310.06C521.362 309.879 522.437 310.113 523.249 310.693C524.06 311.274 524.177 311.892 523.778 311.985Z" fill="#241352"/>
<path fill-rule="evenodd" clip-rule="evenodd" d="M534 319.942C534.017 322.703 530.898 324.969 527.032 325C523.166 325.03 520.02 322.819 520 320.058C519.983 317.297 523.102 315.031 526.971 315C530.834 314.97 533.983 317.181 534 319.942Z" fill="#241352" fill-opacity="0.15"/>
<path fill-rule="evenodd" clip-rule="evenodd" d="M503 321.942C503.017 324.703 499.898 326.969 496.032 327C492.166 327.03 489.02 324.819 489 322.058C488.983 319.297 492.102 317.031 495.971 317C499.834 316.97 502.983 319.181 503 321.942Z" fill="#241352" fill-opacity="0.15"/>
<path fill-rule="evenodd" clip-rule="evenodd" d="M470.844 446.123L465 524.114L546 535L540.519 445L470.844 446.123Z" fill="#7CABFF"/>
<path fill-rule="evenodd" clip-rule="evenodd" d="M474 394.023V455L484 451.496V382L474 384.845" fill="#7CABFF"/>
<path fill-rule="evenodd" clip-rule="evenodd" d="M540.473 453C540.473 453 552.883 526.91 535.382 525.092C477.818 519.11 443.541 518.301 443.541 518.301L434 538.325C433.779 541.736 543.013 573.34 560.566 562.892C572.958 555.512 592.701 535.639 583.739 476.25L581.622 456.345L540.473 453Z" fill="#FFAFA7"/>
<path fill-rule="evenodd" clip-rule="evenodd" d="M571.462 404.525C571.462 404.525 584.979 417.582 588 467L535.691 461.177C535.691 461.177 526.974 377.017 571.462 404.525Z" fill="#241352"/>
<path fill-rule="evenodd" clip-rule="evenodd" d="M461.252 518.444C461.252 518.444 432.738 509.705 433.713 512.581C434.692 515.452 439.547 515.562 444.399 520.195C444.399 520.195 412.517 520.531 414.054 523.098C415.587 525.665 436.334 526.309 436.46 526.744C436.587 527.183 413.763 527.728 414.278 530.099C414.791 532.474 435.997 531.895 435.997 531.895C435.997 531.895 416.341 533.937 416.741 536.494C417.148 539.054 435.271 537.21 435.271 537.21C435.271 537.21 420.102 538.903 420.495 541.219C420.737 542.631 464.908 542.953 465 543.992C465.048 544.533 461.252 518.444 461.252 518.444Z" fill="#FFAFA7"/>
<path fill-rule="evenodd" clip-rule="evenodd" d="M484.941 444C485.172 443.977 485.751 445.394 485.975 447.99C486.054 449.266 485.986 450.959 485.158 452.633C484.396 454.232 482.708 456 480.37 456C478.081 455.972 476.39 454.468 475.426 452.975C474.425 451.392 474.16 449.789 474.041 448.506C473.884 445.918 474.213 444.414 474.448 444.398C474.747 444.378 474.915 445.958 475.396 448.273C475.662 449.407 476.065 450.77 476.879 451.873C477.689 452.979 479.004 453.96 480.367 453.948C481.726 453.972 482.913 452.92 483.593 451.711C484.295 450.51 484.508 449.151 484.601 447.982C484.736 445.623 484.642 444.032 484.941 444Z" fill="#241352"/>
<path fill-rule="evenodd" clip-rule="evenodd" d="M480.792 446.573C480.892 446.726 480.775 447.016 480.909 447.354C481.087 447.741 481.258 447.834 481.582 447.634C481.887 447.404 481.867 447.203 481.587 446.886C481.336 446.631 481.029 446.631 480.931 446.478C480.804 446.365 481.165 445.85 481.948 446.043C482.299 446.143 482.747 446.415 482.94 447.018C483.142 447.641 482.811 448.382 482.287 448.717C481.784 449.082 480.992 449.117 480.509 448.684C480.036 448.272 479.966 447.741 480.012 447.369C480.136 446.556 480.736 446.413 480.792 446.573Z" fill="#241352"/>
<path fill-rule="evenodd" clip-rule="evenodd" d="M529.528 445.573C529.595 445.726 529.517 446.016 529.606 446.354C529.725 446.741 529.839 446.834 530.055 446.634C530.258 446.404 530.245 446.203 530.058 445.886C529.891 445.631 529.686 445.631 529.621 445.478C529.536 445.365 529.777 444.85 530.298 445.043C530.533 445.143 530.832 445.415 530.96 446.018C531.095 446.641 530.874 447.382 530.524 447.717C530.19 448.082 529.661 448.117 529.34 447.684C529.024 447.272 528.977 446.741 529.008 446.369C529.091 445.556 529.491 445.413 529.528 445.573Z" fill="#241352"/>
<path fill-rule="evenodd" clip-rule="evenodd" d="M533.25 445.007C533.449 444.922 534.208 445.59 533.945 446.855C533.735 448.026 532.193 449.838 529.212 450C526.219 450.022 524.475 448.31 524.129 447.156C523.719 445.912 524.4 445.201 524.606 445.272C524.9 445.322 524.821 445.989 525.43 446.812C525.967 447.613 527.422 448.622 529.129 448.578C530.836 448.518 532.167 447.424 532.611 446.59C533.118 445.734 532.964 445.073 533.25 445.007Z" fill="#241352"/>
<path fill-rule="evenodd" clip-rule="evenodd" d="M530.204 440.914C530.099 440.735 530.423 440.018 531.273 440C531.675 440.004 532.223 440.201 532.641 440.932C533.091 441.641 533.123 443.004 532.709 443.833C532.362 444.718 531.477 445.328 530.747 444.809C530.006 444.224 529.955 443.227 530.021 442.627C530.089 441.981 530.385 441.502 530.642 441.389C530.901 441.279 531.032 441.422 531.044 441.535C531.042 441.809 530.815 442.101 530.944 442.679C531.125 443.351 531.27 443.373 531.605 442.807C531.901 442.182 531.62 441.648 531.137 441.33C530.69 441.049 530.3 441.147 530.204 440.914Z" fill="#241352"/>
<path fill-rule="evenodd" clip-rule="evenodd" d="M526.583 479.994C526.041 479.873 525.954 478.083 526.018 475.972C526.094 473.862 526.284 472.092 526.83 472.003C527.361 471.911 528.073 473.717 527.994 476.045C527.922 478.372 527.107 480.118 526.583 479.994Z" fill="#241352"/>
<path fill-rule="evenodd" clip-rule="evenodd" d="M520.06 490.93C519.814 490.614 520.36 489.448 521.101 488.146C521.849 486.847 522.559 485.827 522.872 486.025C523.18 486.21 522.934 487.648 522.116 489.072C521.306 490.495 520.295 491.242 520.06 490.93Z" fill="#241352"/>
<path fill-rule="evenodd" clip-rule="evenodd" d="M508.003 498.684C507.926 498.324 509.437 497.891 511.276 497.48C513.123 497.079 514.711 496.825 514.969 497.144C515.223 497.453 513.899 498.269 511.868 498.714C509.842 499.16 508.073 499.033 508.003 498.684Z" fill="#241352"/>
<path fill-rule="evenodd" clip-rule="evenodd" d="M493.025 497.088C493.254 496.913 494.843 497.023 496.694 497.211C498.544 497.403 500.057 497.616 499.998 497.811C499.951 497.999 498.206 498.089 496.181 497.879C494.156 497.672 492.796 497.257 493.025 497.088Z" fill="#241352"/>
<path fill-rule="evenodd" clip-rule="evenodd" d="M483.112 488.035C483.407 487.777 484.114 488.989 484.867 490.542C485.615 492.102 486.174 493.494 485.95 493.902C485.735 494.303 484.742 493.453 483.92 491.743C483.095 490.04 482.823 488.282 483.112 488.035Z" fill="#241352"/>
<path fill-rule="evenodd" clip-rule="evenodd" d="M481.489 473.002C481.754 473.062 481.886 474.826 481.962 476.936C482.034 479.054 482.023 480.851 481.763 480.991C481.513 481.136 481.093 479.42 481.014 477.101C480.93 474.778 481.232 472.937 481.489 473.002Z" fill="#241352"/>
<path fill-rule="evenodd" clip-rule="evenodd" d="M491 472.137C490.982 472.686 489.4 473.066 487.47 472.99C485.534 472.914 483.986 472.408 484 471.863C484.021 471.314 485.6 470.934 487.533 471.01C489.466 471.086 491.017 471.589 491 472.137Z" fill="#241352"/>
<path fill-rule="evenodd" clip-rule="evenodd" d="M505 472.137C504.985 472.686 503.628 473.066 501.971 472.99C500.315 472.918 498.985 472.411 499 471.863C499.015 471.314 500.372 470.934 502.029 471.01C503.685 471.086 505.015 471.589 505 472.137Z" fill="#241352"/>
<path fill-rule="evenodd" clip-rule="evenodd" d="M521 472.137C520.982 472.686 519.4 473.066 517.467 472.99C515.534 472.914 513.983 472.408 514 471.863C514.018 471.314 515.6 470.934 517.533 471.01C519.466 471.086 521.017 471.589 521 472.137Z" fill="#241352"/>
<path fill-rule="evenodd" clip-rule="evenodd" d="M539.382 459C539.251 459.014 538.987 457.773 538.614 455.518C538.241 453.262 537.763 449.994 537.212 445.948C536.115 437.854 534.714 426.682 533.308 414.29C532.986 411.174 532.812 408.037 533.319 405.007C533.783 401.978 535.108 399.128 536.966 396.931C540.703 392.478 545.853 390.35 550.101 389.548C554.41 388.736 557.963 388.992 560.346 389.268C562.739 389.569 564.018 389.942 564 390.049C563.978 390.187 562.656 390.049 560.284 389.97C557.927 389.907 554.457 389.859 550.391 390.792C546.382 391.704 541.659 393.842 538.335 397.95C536.687 399.984 535.554 402.489 535.145 405.277C534.703 408.058 534.866 411.046 535.188 414.11C536.589 426.464 537.781 437.688 538.538 445.81C538.918 449.869 539.193 453.165 539.342 455.442C539.49 457.722 539.512 458.986 539.382 459Z" fill="#241352"/>
<path fill-rule="evenodd" clip-rule="evenodd" d="M535 455.119C535.052 454.699 546.962 455.425 561.595 456.74C576.231 458.056 588.052 459.462 588 459.882C587.948 460.299 576.044 459.577 561.405 458.258C546.772 456.946 534.948 455.539 535 455.119Z" fill="#241352"/>
<path fill-rule="evenodd" clip-rule="evenodd" d="M550.596 382C550.596 382 514.238 386.678 524.987 446.027L534.097 447C534.097 447 523.823 391.243 558 387.264L550.596 382Z" fill="#7CABFF"/>
</svg>
