<svg width="163" height="30" viewBox="0 0 163 30" fill="none" xmlns="http://www.w3.org/2000/svg">
<g clip-path="url(#clip0_0_1)">
<g style="mix-blend-mode:multiply">
<path d="M10.882 21.4099L26.8383 0H19.258L4.10303 19.6199V30H10.9075L10.882 21.4099Z" fill="#EC8034"/>
</g>
<g style="mix-blend-mode:multiply">
<path d="M35.1577 21.4099L19.2014 0H26.7817L41.9366 19.6199V30H35.1322L35.1577 21.4099Z" fill="#0093BA"/>
</g>
<g style="mix-blend-mode:multiply">
<path d="M4.94688 9.91206C7.67896 9.91206 9.89375 7.69317 9.89375 4.95603C9.89375 2.21889 7.67896 0 4.94688 0C2.21479 0 0 2.21889 0 4.95603C0 7.69317 2.21479 9.91206 4.94688 9.91206Z" fill="#EC8034"/>
</g>
<path d="M42.4491 14.678C44.4102 14.678 46 13.0853 46 11.1206C46 9.15583 44.4102 7.56311 42.4491 7.56311C40.488 7.56311 38.8983 9.15583 38.8983 11.1206C38.8983 13.0853 40.488 14.678 42.4491 14.678Z" fill="#0093BA"/>
<g style="mix-blend-mode:multiply">
<path d="M26.0737 24.0568H20.1386V30.0029H26.0737V24.0568Z" fill="#EC8034"/>
</g>
</g>
<g clip-path="url(#clip1_0_1)">
<path d="M90.061 14.0746C92.1158 14.9104 94.7632 15.3256 98.0031 15.3256C101.243 15.3256 103.888 14.9077 105.945 14.0746C108 13.2415 109.029 11.9878 109.029 10.3189C109.029 8.64992 107.997 7.42604 105.932 6.59294C103.866 5.75983 101.224 5.34192 98.0059 5.34192C94.7879 5.34192 92.1432 5.75983 90.0802 6.59294C88.0144 7.42876 86.9828 8.66892 86.9828 10.3189C86.9828 11.9688 88.0116 13.2388 90.0664 14.0746H90.061ZM92.2859 8.30528C93.7893 7.84395 95.6932 7.616 98.0004 7.616C100.308 7.616 102.214 7.84667 103.715 8.30528C105.218 8.76661 105.97 9.4369 105.97 10.3189C105.97 11.2008 105.218 11.8765 103.715 12.3487C102.212 12.8182 100.308 13.0543 98.0004 13.0543C95.6932 13.0543 93.7865 12.8182 92.2859 12.3487C90.7825 11.8792 90.0308 11.2035 90.0308 10.3189C90.0308 9.43418 90.7825 8.7639 92.2859 8.30528Z" fill="#EC8034"/>
<path d="M153.222 7.27952C152.098 6.44641 150.789 6.0285 149.297 6.0285C147.804 6.0285 146.465 6.44641 145.341 7.27952C144.216 8.11534 143.338 9.38536 142.707 11.0923C142.076 12.7992 141.76 14.9186 141.76 17.4505C141.76 19.9824 142.076 22.1018 142.707 23.8087C143.338 25.5156 144.216 26.7856 145.341 27.6214C146.465 28.4546 147.785 28.8725 149.297 28.8725C150.808 28.8725 152.098 28.4546 153.222 27.6214C154.347 26.7856 155.225 25.5156 155.856 23.8087C156.487 22.1018 156.803 19.9824 156.803 17.4505C156.803 14.9186 156.487 12.7992 155.856 11.0923C155.225 9.38536 154.347 8.11534 153.222 7.27952ZM152.641 24.0828C151.788 25.5319 150.674 26.2537 149.297 26.2537C147.919 26.2537 146.751 25.5292 145.909 24.0828C145.066 22.6337 144.644 20.4247 144.644 17.4505C144.644 14.4763 145.069 12.2673 145.925 10.8182C146.778 9.36907 147.903 8.64723 149.299 8.64723C150.696 8.64723 151.79 9.37721 152.644 10.8345C153.497 12.2917 153.925 14.498 153.925 17.4532C153.925 20.4084 153.497 22.6364 152.644 24.0855L152.641 24.0828Z" fill="#EC8034"/>
<path d="M135.308 5H132.565V29H135.308V17.0678H138.54V14.3541H135.308V5Z" fill="#EC8034"/>
<path d="M163 5H160.257V29H163V5Z" fill="#EC8034"/>
<path d="M72.462 7.27952C71.3372 6.44641 70.0286 6.0285 68.5361 6.0285C67.0437 6.0285 65.7049 6.44641 64.5802 7.27952C63.4554 8.11534 62.5775 9.38536 61.9465 11.0923C61.3155 12.7992 61 14.9186 61 17.4505C61 19.9824 61.3155 22.1018 61.9465 23.8087C62.5775 25.5156 63.4554 26.7856 64.5802 27.6214C65.7049 28.4546 67.0245 28.8725 68.5361 28.8725C70.0478 28.8725 71.3372 28.4546 72.462 27.6214C73.5868 26.7856 74.4647 25.5156 75.0956 23.8087C75.7266 22.1018 76.0421 19.9824 76.0421 17.4505C76.0421 14.9186 75.7266 12.7992 75.0956 11.0923C74.4647 9.38536 73.5868 8.11534 72.462 7.27952ZM71.8804 24.0828C71.0272 25.5319 69.9133 26.2537 68.5361 26.2537C67.159 26.2537 65.9903 25.5292 65.148 24.0828C64.3058 22.6337 63.8833 20.4247 63.8833 17.4505C63.8833 14.4763 64.3086 12.2673 65.1645 10.8182C66.0177 9.36907 67.1425 8.64723 68.5389 8.64723C69.9353 8.64723 71.0299 9.37721 71.8831 10.8345C72.7363 12.2917 73.1643 14.498 73.1643 17.4532C73.1643 20.4084 72.7363 22.6364 71.8831 24.0855L71.8804 24.0828Z" fill="#EC8034"/>
<path d="M82.2395 5H79.4961V29H82.2395V5Z" fill="#EC8034"/>
<path d="M121.413 21.0081C120.809 18.962 120.82 17.7788 120.834 16.1424C120.839 15.5807 120.845 14.943 120.826 14.2239C120.82 14.0529 120.817 13.8738 120.812 13.692C120.847 12.0637 120.801 10.4627 120.757 8.97827C120.732 8.10988 120.708 7.28763 120.699 6.51965V6.02576L117.953 6.03933V6.54136C117.964 7.33105 117.986 8.15601 118.014 9.02983C118.014 9.24964 118.022 11.6757 118.068 13.692C117.948 18.7883 116.946 23.7978 112.107 25.4939C109.048 26.5658 105.21 26.2646 102.091 24.7042C100.837 24.0773 99.4846 22.8317 99.4846 21.578V19.6974H110.159V16.9837H86.0665V19.6974H96.7411V21.578C96.7411 22.3053 96.294 25.9389 87.4382 25.9389H85.5947V28.6526H87.4382C93.7344 28.6526 96.7494 26.8751 98.1869 25.076C98.9633 25.9688 99.9427 26.6716 100.854 27.1248C103.111 28.2537 105.693 28.8317 108.206 28.8317C109.882 28.8317 111.528 28.5739 113.026 28.0475C116.068 26.981 117.945 25.0217 119.094 22.6336C119.887 24.5169 121.352 26.0149 123.374 26.9945C125.503 28.0285 127.755 28.2808 129.451 28.2808C129.684 28.2808 129.906 28.2754 130.117 28.2673L130.01 25.5563C126.548 25.692 122.469 24.5658 121.418 21L121.413 21.0081Z" fill="#EC8034"/>
</g>
<defs>
<clipPath id="clip0_0_1">
<rect width="46" height="30" fill="white"/>
</clipPath>
<clipPath id="clip1_0_1">
<rect width="102" height="24" fill="white" transform="translate(61 5)"/>
</clipPath>
</defs>
</svg>
