<svg width="70" height="56" viewBox="0 0 70 56" fill="none" xmlns="http://www.w3.org/2000/svg">
<path d="M51.926 28.89C51.023 28.89 50.127 28.89 49.224 28.89C48.447 28.89 47.901 28.386 47.894 27.686C47.894 27.007 48.412 26.482 49.168 26.475C51.009 26.461 52.857 26.461 54.698 26.475C55.475 26.475 56 27.021 55.979 27.721C55.958 28.407 55.426 28.89 54.663 28.89C53.746 28.89 52.836 28.89 51.919 28.89H51.926Z" fill="#EC8034"/>
<path d="M38.521 19.4749C41.412 20.5389 43.414 22.5199 44.59 25.3479C45.129 26.6499 45.332 28.0219 45.332 29.4219C45.332 32.9289 45.332 36.4359 45.332 39.9499C42.819 39.9499 40.306 39.9639 37.793 39.9639C35.798 39.9639 33.803 39.9569 31.808 39.9499C31.808 36.6459 31.808 33.3419 31.808 30.0309C31.808 29.2259 31.857 28.4279 31.969 27.6299C32.263 25.4529 33.236 23.5979 34.72 22.0019C35.784 20.8609 37.093 20.0559 38.528 19.4609L38.521 19.4749Z" fill="#EC8034"/>
<path d="M38.521 19.4749C37.086 20.0699 35.777 20.8679 34.713 22.0159C33.229 23.6119 32.256 25.4599 31.962 27.6439C31.857 28.4419 31.801 29.2399 31.801 30.0449C31.801 33.3489 31.801 36.6529 31.801 39.9639C29.421 39.9639 27.041 39.9639 24.661 39.9639C24.661 36.3309 24.647 32.6979 24.661 29.0649C24.689 24.1369 28.245 19.9019 33.082 19.0129C34.86 18.6839 36.61 18.8099 38.325 19.3979C38.388 19.4189 38.444 19.4609 38.507 19.4889L38.521 19.4749Z" fill="#D86819"/>
<path d="M48.139 40.5519C47.894 40.0969 47.474 39.9849 47.005 39.9779C46.445 39.9639 45.892 39.9639 45.332 39.9569C42.819 39.9569 40.306 39.9709 37.793 39.9709C35.798 39.9709 33.803 39.9639 31.808 39.9569C29.428 39.9569 27.048 39.9569 24.668 39.9569C24.108 39.9569 23.555 39.9639 22.995 39.9779C22.526 39.9849 22.106 40.0969 21.861 40.5519C21.693 40.7129 21.644 40.9229 21.637 41.1469C21.616 41.9029 22.162 42.4139 23.016 42.4139C31.003 42.4139 38.99 42.4139 46.97 42.4139C47.068 42.4139 47.159 42.4139 47.257 42.4139C48.174 42.3089 48.643 41.3149 48.132 40.5589L48.139 40.5519Z" fill="#0093BA"/>
<path d="M14.014 27.336C14.35 26.65 14.91 26.44 15.652 26.454C17.332 26.489 19.012 26.461 20.692 26.468C21.413 26.468 21.875 26.762 22.043 27.308C22.281 28.071 21.756 28.862 20.951 28.876C19.026 28.904 17.101 28.897 15.176 28.876C14.588 28.876 14.259 28.477 14.021 27.987V27.329L14.014 27.336Z" fill="#EC8034"/>
<path d="M33.789 10.7039C33.789 9.78694 33.782 8.87694 33.789 7.95994C33.789 7.39994 34.055 6.99394 34.58 6.77694C35.035 6.59494 35.553 6.72794 35.889 7.09194C36.12 7.34394 36.218 7.65194 36.218 7.99494C36.218 9.82194 36.225 11.6559 36.218 13.4829C36.218 14.2459 35.679 14.7989 34.986 14.7849C34.307 14.7709 33.803 14.2389 33.789 13.4899C33.775 12.5589 33.789 11.6349 33.789 10.7039Z" fill="#EC8034"/>
<path d="M25.025 18.901C24.654 18.915 24.367 18.747 24.115 18.502C22.813 17.2 21.504 15.905 20.209 14.589C19.684 14.057 19.684 13.315 20.174 12.832C20.664 12.349 21.392 12.363 21.924 12.895C23.233 14.19 24.535 15.499 25.83 16.801C26.222 17.193 26.348 17.662 26.117 18.187C25.914 18.656 25.529 18.887 25.018 18.901H25.025Z" fill="#EC8034"/>
<path d="M50.183 13.6789C50.197 14.0429 50.043 14.3439 49.791 14.5959C48.489 15.8979 47.194 17.2069 45.878 18.5019C45.346 19.0269 44.611 19.0409 44.121 18.5579C43.631 18.0749 43.638 17.3399 44.163 16.8079C45.472 15.4919 46.781 14.1759 48.097 12.8739C48.482 12.4889 48.944 12.3839 49.448 12.5939C49.917 12.7969 50.155 13.1679 50.169 13.6859L50.183 13.6789Z" fill="#EC8034"/>
<path d="M55.1181 42.121C63.2672 30.8201 60.7674 15.0926 49.5346 6.99255C38.3018 -1.10746 22.5896 1.48733 14.4405 12.7882" stroke="#0093BA" stroke-width="1.34522"/>
<path d="M55.2485 41.9403C47.0994 53.2412 31.3872 55.836 20.1544 47.736C8.92156 39.636 6.42167 23.9084 14.5708 12.6075" stroke="#EC8034" stroke-width="1.34522"/>
</svg>
